<?xml version="1.0" encoding="UTF-8" standalone="no"?>
<!DOCTYPE svg PUBLIC "-//W3C//DTD SVG 1.1//EN" "http://www.w3.org/Graphics/SVG/1.1/DTD/svg11.dtd">
<svg width="100%" height="100%" viewBox="0 0 2100 2100" version="1.1" xmlns="http://www.w3.org/2000/svg" xmlns:xlink="http://www.w3.org/1999/xlink" xml:space="preserve" xmlns:serif="http://www.serif.com/" style="fill-rule:evenodd;clip-rule:evenodd;stroke-linejoin:round;stroke-miterlimit:2;">
    <path d="M1050,120L498,312L120,955L210,1550L655,1913L1460,1948L1909,1389L1928,721L1578,304L1050,120ZM985,327L527,559L326,970L472,1464L775,1732L1081.83,1720.88L1082.01,1543.08L874.086,1640.58L703.139,1447.14L892.288,1140.31L1240,1166L1609.66,1386.43L1695,1261L1512.4,1124.87L1435.16,975.461L1434.65,855.461L1380.71,737.211L1177.78,959.169L893.68,925.399L893.377,676.108L1319.99,458.877L1224,403L985,327Z"/>
</svg>
