<?xml version="1.0" encoding="UTF-8" standalone="no"?>
<!DOCTYPE svg PUBLIC "-//W3C//DTD SVG 1.1//EN" "http://www.w3.org/Graphics/SVG/1.1/DTD/svg11.dtd">
<svg width="100%" height="100%" viewBox="0 0 2100 2100" version="1.1" xmlns="http://www.w3.org/2000/svg" xmlns:xlink="http://www.w3.org/1999/xlink" xml:space="preserve" xmlns:serif="http://www.serif.com/" style="fill-rule:evenodd;clip-rule:evenodd;stroke-linecap:round;stroke-linejoin:round;stroke-miterlimit:1.5;">
    <path d="M166,935L138,1162L583,1176L1010,1145L685,1477L817,1675L1100,1359L1427,1074L1094,671L847,463L677,600L1009,925L613,941L166,935Z" />
    <path d="M1350,1616L1283,1841L1707,1839L1896.52,1776.82L1937,1593L1987,1019L1946,530L1830,320L1357,254L1281,463L1620,489L1729,598L1710,928L1747,1352L1705,1578L1350,1616Z" />
</svg>
