<svg width="100%" height="100%" viewBox="0 0 3300 2100" version="1.1" xmlns="http://www.w3.org/2000/svg" xmlns:xlink="http://www.w3.org/1999/xlink" xml:space="preserve" xmlns:serif="http://www.serif.com/" style="fill-rule:evenodd;clip-rule:evenodd;stroke-linejoin:round;stroke-miterlimit:2;">
    <g transform="matrix(1.58198,0,0,1.58198,-52.2052,10.6424)">
        <g>
            <path d="M46,46L33,1268L2119,1246L2095,61L46,46Z" style="fill:hsl(39, 16%, 30%);"/>
            <path d="M76,78L78.064,1236L2076,1206.6L2066.71,93.748L76,78Z" style="fill:rgb(209,202,191);"/>
        </g>
        <g>
            <path d="M1548,1214.37L1957,1121L2072.48,784.558L2076,1206.6L1548,1214.37Z" style="fill:rgb(206,197,182);"/>
            <path d="M1412.55,88.573L1665,229.485L1713.19,333.923L1904,501L2070.77,579.693L2066.71,93.748L1412.55,88.573Z" style="fill:rgb(206,197,182);"/>
            <path d="M76.343,270.356L443,143L1017.18,85.445L76.343,78L76.343,270.356Z" style="fill:rgb(206,197,182);"/>
            <path d="M390.76,822L500.746,594.115L721.254,462.939L984,413.385L1265,356.255L1519,579.693L1452.73,767.244L1254.92,865.724L955,999.465L470.562,938L390.76,822Z" style="fill:rgb(206,197,182);"/>
        </g>
    </g>
</svg>