<?xml version="1.0" encoding="UTF-8" standalone="no"?>
<svg width="100%" height="100%" viewBox="0 0 2100 2100" version="1.1" xmlns="http://www.w3.org/2000/svg" xmlns:xlink="http://www.w3.org/1999/xlink" xml:space="preserve" xmlns:serif="http://www.serif.com/" style="fill-rule:evenodd;clip-rule:evenodd;stroke-linejoin:round;stroke-miterlimit:2;">
    <path d="M19,206L86,61L206,24L654,80L999,61L1338,95L1545,24L1849,61L2008,41L2064,156L2008,324L2064,820L1982,1050L2036,1268L1982,1676L2064,1908L2036,2056L1864,2031L1496,1960L1194,2031L823,1993L468,2056L193,2031L32,1894L55,1608L32,1293L115,923L32,490L19,206Z" style="fill:white;"/>
</svg>