<svg width="100%" height="100%" viewBox="0 0 2100 2100" version="1.1" xmlns="http://www.w3.org/2000/svg" xmlns:xlink="http://www.w3.org/1999/xlink" xml:space="preserve" xmlns:serif="http://www.serif.com/" style="fill-rule:evenodd;clip-rule:evenodd;stroke-linejoin:round;stroke-miterlimit:2;"><path d="M153,799L102,335L135,179L331,90L564,82L671.538,145.776L795,103L922.339,52.575L1050,72L1125.23,145.645L1232,185L1359.6,132.4L1452,26L1589.73,28.339L1706,84L1912,176L2004,404L1914,914L2075,1295L1956,1855L1838,2020L1564,2039L1454.79,1989.42L1343,1999L1280.98,1894.47L1188,1904L1136.72,2006.82L1050,2061L892,1999L776.756,1914.38L606,1936L434,1999L262,1951L140,1811L19,1217L153,799ZM540,1153L463,885L627,670L736,589.833L867,608L947.106,496.215L1078,442L1172.6,518.707L1283,525L1408.08,489.456L1522,524L1564,761L1452,1000L1489,1341L1369.64,1549.87L1272,1603L1152.85,1501L1050,1551L968.302,1679.52L860,1642L756.603,1515.2L642,1595L483,1460L540,1153Z" style="fill:rgb(213,25,25);"/></svg>
