<?xml version="1.0" encoding="UTF-8" standalone="no"?><svg width="100%" height="100%" viewBox="0 0 2100 2100" version="1.1" xmlns="http://www.w3.org/2000/svg" xmlns:xlink="http://www.w3.org/1999/xlink" xml:space="preserve" xmlns:serif="http://www.serif.com/" style="fill-rule:evenodd;clip-rule:evenodd;stroke-linejoin:round;stroke-miterlimit:2;"><path d="M153,799L102,335L135,179L331,90L564,82L795,103L1050,72L1232,185L1452,26L1706,84L1912,176L2004,404L1914,914L2075,1295L1956,1855L1838,2020L1564,2039L1343,1999L1188,1904L1050,2061L892,1999L606,1936L434,1999L262,1951L140,1811L19,1217L153,799ZM540,1153L463,885L627,670L867,608L1078,442L1283,525L1522,524L1564,761L1452,1000L1489,1341L1271,1551L1050,1551L860,1642L642,1595L483,1460L540,1153Z" style="fill:rgb(213,25,25);"/></svg>
