<?xml version="1.0" encoding="UTF-8" standalone="no"?>
<svg width="100%" height="100%" viewBox="0 0 2100 2100" version="1.1" xmlns="http://www.w3.org/2000/svg" xmlns:xlink="http://www.w3.org/1999/xlink" xml:space="preserve" xmlns:serif="http://www.serif.com/" style="fill-rule:evenodd;clip-rule:evenodd;stroke-linejoin:round;stroke-miterlimit:2;">
    <g transform="matrix(1.15448,0,0,1.15448,-191.286,0)">
        <g transform="matrix(1.49343,0,0,1.49343,-431.996,0)">
            <path d="M1246,0L1246.99,327.322L1242.57,340.677L1181.2,442.604L1170,452L784,491L690.87,567.231L624,1171L571.42,1218L954,1218L915,1167L906.037,703.079L919.378,691.74L1274,635L1431,386L1447,0L1246,0Z" style="fill:rgb(161,188,188);"/>
        </g>
        <path d="M907.853,983.869L1105.25,1006.79L941.032,1033.07L921.109,1050L924.345,1217.5L867.289,1016.02L599.772,847.121L873.628,996.339L885.628,988.341L738.855,733.275L907.853,983.869Z" style="fill:rgb(148,182,182);"/>
        <path d="M1429.21,127.849L1455,27L1628,0L1428.82,0L1429.21,127.849Z" style="fill:rgb(148,182,182);"/>
        <path d="M1456.62,497.225L1430.06,408.957L1430.3,488.833L1423.7,508.778L1332.05,660.998L1315.32,675.031L1101.1,696.676L1326.16,694.112L1470.64,948.329L1342.97,683.627L1455.31,516.382L1705.11,576.465L1456.62,497.225Z" style="fill:rgb(148,182,182);"/>
        <path d="M891.366,1743.43L927.121,1525.33L934.494,1742.84L992.738,1819L633,1819L887.893,1764.61L499.906,1748.81L891.366,1743.43Z" style="fill:rgb(148,182,182);"/>
        <g transform="matrix(0.861655,-0.0885262,0.0885262,0.861655,87.923,106.107)">
            <path d="M1179,946L1049.5,958L1074,929L1060,910L1002,979L1076.41,1018L1079.41,994L1049.5,978L1179,972L1179,946Z" style="fill:rgb(148,182,182);"/>
        </g>
        <g transform="matrix(0.111841,-0.85894,0.85894,0.111841,-204.458,2132.33)">
            <path d="M1142,921L962.228,948L986.728,919L972.728,900L914.728,969L990.728,1000L993.728,976L971.728,966L1142,947L1142,921Z" style="fill:rgb(148,182,182);"/>
        </g>
        <g transform="matrix(-0.115025,-0.858519,-0.85697,0.114818,2511.16,1015.41)">
            <path d="M1142,921L962.228,948L986.728,919L972.728,900L914.728,969L990.728,1000L993.728,976L971.728,966L1142,947L1142,921Z" style="fill:rgb(148,182,182);"/>
        </g>
    </g>
</svg>
