<?xml version="1.0" encoding="UTF-8" standalone="no"?>
<!DOCTYPE svg PUBLIC "-//W3C//DTD SVG 1.1//EN" "http://www.w3.org/Graphics/SVG/1.1/DTD/svg11.dtd">
<svg width="100%" height="100%" viewBox="0 0 2100 2100" version="1.1" xmlns="http://www.w3.org/2000/svg" xmlns:xlink="http://www.w3.org/1999/xlink" xml:space="preserve" xmlns:serif="http://www.serif.com/" style="fill-rule:evenodd;clip-rule:evenodd;stroke-linecap:round;stroke-linejoin:round;stroke-miterlimit:1.5;">
    <g transform="matrix(0.906786,0,0,0.906786,1050,1050)">
        <g transform="matrix(1,0,0,1,-1050,-1050)">
            <g transform="matrix(1,0,0,1,0,52.25)">
                <path d="M852,151L1062,0L1224,151L1148,151L1050,73L960,151L852,151Z" style="stroke:black;stroke-width:1px;"/>
            </g>
            <g>
                <path d="M1086.36,176.364C1086.36,176.364 495.587,110.071 233.158,645.972C-29.272,1181.87 194.788,1611.64 455.175,1821.15C715.562,2030.66 1580.22,2077.8 1797.74,1763.03C2015.26,1448.27 2013.79,916.654 1937.23,711.066C1860.67,505.479 1572.31,149.475 1086.36,176.364ZM1050,348.75C1050,348.75 703.184,380.092 544,576C384.816,771.908 307.746,981.868 337,1144C366.254,1306.13 408.46,1544.41 598,1681C787.54,1817.59 1157.22,1838 1371,1766C1584.78,1694 1652.92,1587.12 1689,1489C1725.08,1390.88 1787.96,1024.62 1753,883C1718.04,741.384 1588.56,533.936 1464,455C1335.74,373.719 1249.23,344.09 1050,348.75Z" style="fill:rgb(138,117,77);"/>
                <g>
                    <path d="M357.695,457.305L829,265L1317,252L1765.41,447.534C1619.65,294.111 1392.12,159.445 1086.36,176.364C1086.36,176.364 646.879,127.048 357.695,457.305Z" style="fill:rgb(132,108,64);"/>
                    <path d="M352,1613L116.707,1156.5L116.708,1156.53L129.098,1271.39C170.904,1511.82 307.171,1702.07 455.175,1821.15C491.759,1850.59 540.272,1876.82 597.223,1899.28L597.551,1899.41L598.594,1899.81L352,1613Z" style="fill:rgb(132,108,64);"/>
                    <path d="M1936.18,1444.08L1684,1791L1395.23,1967.38C1571.95,1936.58 1723.02,1871.15 1797.74,1763.03C1861.5,1670.78 1906.44,1559.89 1936.18,1444.08Z" style="fill:rgb(132,108,64);"/>
                </g>
            </g>
        </g>
    </g>
</svg>
