<?xml version="1.0" encoding="UTF-8" standalone="no"?>
<svg width="100%" height="100%" viewBox="0 0 2100 870" version="1.1" xmlns="http://www.w3.org/2000/svg" xmlns:xlink="http://www.w3.org/1999/xlink" xml:space="preserve" xmlns:serif="http://www.serif.com/" style="fill-rule:evenodd;clip-rule:evenodd;stroke-linejoin:round;stroke-miterlimit:2;">
    <style>
        :root{
            --background: #cc231c
        }
    </style>
    <g transform="matrix(3.79582,0,0,1,-662.61,0)">
        <rect x="237" y="0" width="431" height="498" style="fill: rgb(245,239,213);"/>
    </g>
    <g transform="matrix(1.11214,0,0,1.11214,-117.752,-37.7828)">
        <path d="M531.886,397.288C528.835,394.266 525.915,391.087 523.124,387.753C514.012,376.864 506.753,365.667 501.347,354.161C495.942,342.654 491.578,330.067 488.258,316.398C484.937,302.729 482.698,289.987 481.539,278.172C480.381,266.357 479.802,254.04 479.802,241.22L479.802,220.833C481.346,198.284 486.597,178.012 495.555,160.019C504.513,142.026 515.402,127.508 528.221,116.465C541.04,105.422 555.713,96.232 572.239,88.896C588.765,81.56 604.828,76.463 620.427,73.605C636.026,70.748 651.548,69.319 666.993,69.319C691.859,69.319 713.829,72.293 732.904,78.239C750.013,83.573 764.296,90.864 775.752,100.113C785.455,104.835 793.903,110.424 801.097,116.881C813.144,127.692 822.565,140.086 829.361,154.064C836.157,168.042 840.481,183.679 842.335,200.978L842.335,223.218C842.335,228.161 825.345,230.632 791.367,230.632C783.335,230.632 772.177,230.477 757.89,230.168C743.604,229.859 734.221,229.705 729.742,229.705C728.97,229.705 727.811,229.782 726.267,229.937C701.873,232.376 693.585,218.584 690.592,208.83L690.535,208.706C689.595,206.596 688.902,204.395 688.424,202.135C688.052,200.38 687.831,198.598 687.552,196.826C687.08,193.824 686.548,190.831 685.959,187.849C685.549,185.771 685.146,183.707 684.455,181.702L684.427,181.622C680.223,181.93 676.018,182.798 672.21,184.657C669.206,186.124 666.567,188.251 664.5,190.88C663.085,192.679 661.939,194.693 660.828,196.689C658.727,200.463 656.829,204.431 655.623,208.588C653.953,214.34 653.387,220.33 652.822,226.269C652.516,229.486 652.248,232.707 652.062,235.934C651.658,242.96 651.538,250.002 651.379,257.037C651.313,259.967 651.24,262.897 651.147,265.826C651.098,267.377 651.02,268.928 650.973,270.479C650.946,271.391 650.943,272.304 650.908,273.216C650.69,278.89 650.199,284.551 650.076,290.229C650.001,293.67 650.06,297.116 650.198,300.555C650.414,305.951 650.868,311.346 651.727,316.681C652.941,324.229 654.936,331.885 658.869,338.509L658.878,338.509C659.468,338.543 660.064,338.511 660.653,338.47C661.793,338.39 662.927,338.216 664.035,337.934C666.631,337.274 669.032,336 671.046,334.235C672.347,333.095 673.474,331.763 674.517,330.388C676.404,327.901 677.95,325.158 679.06,322.239C679.687,320.591 680.122,318.896 680.584,317.196C680.929,315.925 681.282,314.656 681.641,313.388C682.199,311.416 682.774,309.449 683.362,307.486C684.613,303.313 685.789,298.991 687.967,295.18C688.444,294.344 688.976,293.534 689.6,292.799C689.72,292.656 689.844,292.517 689.972,292.382C689.973,292.381 690.157,292.188 690.16,292.188C732.17,292.156 774.18,292.18 816.19,292.188C816.568,292.188 816.971,292.277 817.342,292.345C818.246,292.512 819.117,292.794 819.941,293.202L820.114,293.294C827.93,293.853 844.371,295.97 845.709,312.705C845.748,313.201 845.9,313.681 845.961,314.174C845.991,314.419 846.06,314.714 846.041,314.96C846.03,315.115 845.804,316.969 845.785,317.125C845.565,318.908 845.322,320.689 845.055,322.467C844.845,323.87 844.62,325.271 844.38,326.67C844.083,328.396 843.764,330.119 843.421,331.836C842.948,334.202 842.43,336.56 841.864,338.905C839.317,349.473 835.797,359.815 831.167,369.655C825.549,381.596 818.34,392.853 809.604,402.757C804.367,408.693 798.573,414.135 792.3,418.964C773.162,433.699 750.543,443.445 727.053,448.732C710.449,452.469 693.405,454.02 676.401,453.962C666.368,453.928 656.33,453.372 646.37,452.147C634.996,450.747 623.766,448.422 612.792,445.118C602.557,442.036 592.523,438.145 583.118,433.041C577.851,430.183 572.829,426.908 568.01,423.348L567.643,423.074C563.336,420.98 559.298,418.735 555.532,416.338C546.922,410.859 539.04,404.509 531.886,397.288ZM161.618,251.985C146.393,237.018 138.78,216.904 138.78,191.642C138.78,173.109 142.178,156.467 148.974,141.717C155.769,126.967 164.65,114.92 175.616,105.576C186.582,96.232 199.555,88.432 214.537,82.177C229.518,75.922 244.654,71.52 259.945,68.972C275.235,66.424 291.066,65.149 307.438,65.149C350.837,65.149 385.434,73.181 411.227,89.243L412.123,90.141L412.127,90.143C413.439,91.456 414.703,92.724 415.919,93.949L415.931,93.955C419.976,95.73 423.944,97.672 427.799,99.831C428.844,100.416 429.882,101.017 430.91,101.632C431.319,101.877 431.726,102.124 432.132,102.374C432.334,102.498 432.562,102.589 432.738,102.749C432.81,102.814 436.051,106.071 436.153,106.175C439.116,109.157 442.065,112.151 444.988,115.172C448.718,119.028 452.478,122.89 455.932,127C459.389,131.114 462.537,135.483 465.445,139.999C469.334,146.038 472.625,152.496 474.55,159.439C476.192,165.357 477.066,171.494 477.668,177.596C477.802,178.955 477.92,180.316 478.024,181.679C478.025,181.689 477.295,187.188 474.145,189.541C473.349,190.136 467.819,191.787 466.826,191.825C464.817,191.9 462.808,191.972 460.799,192.042C453.531,192.293 446.262,192.507 438.991,192.688C419.803,193.166 400.609,193.422 381.415,193.519C379.014,193.531 376.613,193.541 374.211,193.548C371.78,193.555 369.349,193.56 366.917,193.562C361.999,193.567 356.937,193.693 352.178,192.232C350.162,191.614 346.366,190.192 344.441,189.275C340.142,187.226 333.467,182.436 330.694,180.356C328.582,178.771 326.537,177.425 325.324,176.048C324.665,175.498 324.147,174.904 323.77,174.267C323.217,173.33 322.663,172.369 322.11,171.385C320.03,171.561 317.958,171.906 315.912,172.308C314.348,172.615 312.795,172.971 311.249,173.357C310.043,173.659 308.838,173.971 307.644,174.315C306.763,174.569 305.893,174.861 305.039,175.195C304.217,175.516 303.41,175.876 302.623,176.277C302.048,176.57 301.484,176.885 300.934,177.222C298.442,178.748 295.969,180.762 295.046,183.646C294.892,184.127 294.784,184.623 294.723,185.124C294.631,185.882 294.644,186.654 294.743,187.41C294.848,188.211 295.059,188.987 295.355,189.734C297.881,190.453 300.673,191.205 303.731,191.99C309.445,193.457 312.998,194.423 314.388,194.886C348.057,203.381 368.136,208.632 374.622,210.64C398.712,218.229 417.788,227.504 431.85,238.463C444.131,244.785 455.881,252.582 465.201,262.873C468.84,266.891 472.054,271.292 474.812,275.958C480.278,285.205 483.833,295.469 485.698,306.03C487.052,313.702 487.517,321.496 487.391,329.28C487.237,338.705 486.277,348.136 484.22,357.342C482.933,363.101 481.194,368.754 479.082,374.263C476.319,381.468 472.867,388.437 468.5,394.81C463.539,402.048 457.442,408.495 450.684,414.079C446.388,417.629 441.805,420.821 437.092,423.789C430.224,428.115 423.006,431.92 415.478,434.967C407.828,438.063 399.947,440.557 391.956,442.612C386.836,443.929 381.668,445.054 376.486,446.096C369.274,447.547 362.021,448.805 354.728,449.776C348.209,450.644 341.657,451.282 335.104,451.824C330.877,452.173 326.645,452.472 322.411,452.728C321.315,452.794 320.218,452.857 319.121,452.918C319.078,452.92 316.943,453.037 316.902,453.037C316.334,453.034 315.766,452.988 315.199,452.962C314.074,452.911 312.949,452.857 311.825,452.799C309.076,452.656 306.327,452.493 303.581,452.306C293.934,451.649 284.303,450.708 274.729,449.351C269.008,448.54 263.31,447.581 257.662,446.363C248.556,444.398 239.584,441.818 230.83,438.634C225.594,436.729 220.432,434.619 215.427,432.164C208.628,428.828 202.143,424.881 196.149,420.248L196.003,420.133C186.423,415.553 178.113,410.156 171.072,403.943C169.617,402.66 168.201,401.319 166.823,399.92C159.108,392.322 152.58,382.977 147.236,371.884C141.135,359.219 137.39,344.546 136,327.866C136,324.931 137.544,323.232 140.633,322.769C141.56,323.078 143.105,323.232 145.267,323.232C158.086,323.232 177.547,322.923 203.648,322.306C229.75,321.688 249.211,321.379 262.03,321.379C263.712,321.379 265.207,321.659 266.515,322.22L266.687,322.219C268.314,322.211 269.955,322.27 271.534,322.702C273.229,323.166 274.809,324.015 276.286,324.952C278.42,326.305 280.395,327.903 282.285,329.575C284.028,331.116 285.697,332.739 287.335,334.39C287.941,335.001 288.538,335.624 289.16,336.219C289.521,336.563 289.905,336.854 290.239,337.229C291.075,338.169 291.82,339.196 292.545,340.222C293.333,341.338 294.097,342.477 294.776,343.664C295.483,344.902 295.938,346.253 296.476,347.57C297.013,348.884 297.609,350.173 298.222,351.454L298.411,351.842C299.524,351.92 300.679,351.96 301.877,351.96C309.445,351.96 316.125,349.836 321.917,345.589C327.709,341.341 330.605,335.588 330.605,328.329C330.605,325.254 329.586,322.339 327.547,319.583L327.381,319.525C323.2,318.106 318.952,316.868 314.706,315.66C305.89,313.151 296.972,311 287.977,309.237C283.395,308.339 278.788,307.572 274.187,306.772C272.354,306.453 270.522,306.126 268.692,305.789C267.828,305.63 266.957,305.488 266.104,305.274C263.192,304.542 260.305,303.688 257.427,302.833C253.493,301.665 249.574,300.444 245.679,299.152C233.808,295.211 222.088,290.628 210.976,284.863C206.519,282.551 202.165,280.037 197.972,277.274C196.697,276.433 195.436,275.57 194.192,274.682C193.659,274.301 193.129,273.916 192.602,273.527C192.403,273.38 192.225,273.2 192.007,273.084C190.98,272.533 189.93,272.021 188.9,271.475C186.751,270.333 184.626,269.145 182.534,267.902C175.031,263.449 167.893,258.296 161.728,252.097L161.618,251.985ZM1227.75,447.477C1226.95,447.485 1226.18,447.267 1225.45,446.98C1224.49,446.603 1223.57,446.107 1222.69,445.573C1219.46,443.616 1216.52,441.213 1213.54,438.901L1213.49,438.862C1213.18,439.663 1212.71,440.063 1212.08,440.063C1208.69,443.461 1201.54,445.469 1190.65,446.087C1179.77,446.705 1166.37,446.55 1150.46,445.624C1134.55,444.697 1126.06,444.234 1124.98,444.234C1114.47,444.234 1106.9,444.079 1102.27,443.77L1079.1,443.77C1059.77,443.881 1053.81,431.165 1053.81,431.165C1052.98,428.986 1052.56,426.97 1051.67,423.158C1050.72,420.963 1049.84,418.274 1049.02,415.09C1046.7,406.055 1044.43,393.082 1042.19,376.169C1039.95,359.257 1038.75,350.261 1038.6,349.18C1038.18,338.886 1036.92,330.955 1034.83,325.386C1033.02,325.231 1031.1,325.154 1029.06,325.154L1018.87,325.154L1018.87,438.21C1018.56,440.063 1016.94,441.608 1014,442.844C1011.07,444.079 1006.86,444.89 1001.38,445.276C995.895,445.662 991.03,445.894 986.782,445.971C982.535,446.048 976.936,446.01 969.986,445.855C963.036,445.701 958.789,445.624 957.244,445.624L923.883,445.624C905.041,445.624 890.831,445.778 881.256,446.087C858.482,446.822 854.15,434.728 854.157,430.238L854.157,429.843C853.857,429.678 853.557,429.51 853.257,429.338L853.257,83.683C853.257,79.359 859.435,77.196 871.791,77.196L1073.81,77.196C1108.87,78.123 1135.55,86.463 1153.85,102.217L1153.94,102.291C1162.04,105.921 1169.18,110.398 1175.36,115.722C1193.67,131.476 1202.82,153.716 1202.82,182.444C1202.82,219.156 1184.64,246.183 1148.28,263.523C1149.42,264.437 1150.51,265.366 1151.55,266.309C1156.44,268.237 1160.94,270.631 1165.05,273.491C1170.61,277.352 1175.25,281.484 1178.95,285.886C1182.66,290.287 1185.9,295.577 1188.68,301.755C1191.46,307.933 1193.63,313.725 1195.17,319.13C1196.72,324.536 1198.07,330.946 1199.23,338.359C1200.38,345.773 1201.19,352.182 1201.66,357.588C1202.12,362.994 1202.7,369.442 1203.4,376.933C1204.09,384.423 1204.67,390.331 1205.13,394.656L1205.13,406.059C1213.25,377.037 1222.03,347.651 1231.49,317.904C1243.07,281.454 1257.47,237.861 1274.69,187.125C1291.91,136.389 1303.69,101.29 1310.02,81.83C1311.88,78.741 1313.11,76.887 1313.73,76.27L1352.65,76.27C1361.76,76.27 1375.2,76.115 1392.96,75.806L1486.76,76.647C1491.13,77.083 1495.5,77.821 1499.66,79.233C1502.31,80.131 1504.89,81.31 1507.18,82.937C1510.62,85.387 1513.5,89.137 1513.63,93.511L1513.63,93.713C1514.26,94.571 1514.69,95.542 1514.88,96.59C1514.95,96.938 1514.99,97.29 1515.01,97.643C1515.01,97.777 1514.98,97.99 1515.02,98.115C1550.61,210.944 1586.23,323.76 1621.82,436.588C1621.83,436.634 1621.82,436.684 1621.82,436.732C1621.82,436.874 1621.81,437.015 1621.81,437.156C1621.78,437.724 1621.71,438.291 1621.58,438.846C1621.45,439.418 1621.26,439.977 1620.98,440.498C1620.79,440.857 1620.57,441.196 1620.3,441.507C1618.78,443.328 1616.25,443.87 1614.01,444.206C1613.47,444.288 1612.93,444.354 1612.39,444.41C1611.3,444.522 1610.2,444.592 1609.1,444.636C1608.01,444.679 1606.92,444.697 1605.84,444.697C1597.91,444.697 1589.99,444.678 1582.06,444.7C1570.83,444.732 1559.6,444.908 1548.37,445.03C1543.77,445.08 1539.18,445.12 1534.58,445.146C1532.59,445.157 1530.59,445.141 1528.6,445.166C1526.96,445.186 1525.33,445.24 1523.69,445.296C1518.67,445.468 1513.64,445.718 1508.62,445.761C1504.46,445.797 1500.31,445.669 1496.16,445.414C1493.2,445.231 1490.23,445.049 1487.29,444.609L1487.15,444.612C1486.76,444.716 1486.36,444.717 1485.96,444.738C1485.49,444.763 1485.02,444.783 1484.55,444.798C1482.6,444.86 1480.65,444.837 1478.71,444.702C1472.45,444.267 1465.98,442.631 1461.1,438.503C1460.35,437.873 1459.65,437.19 1459,436.459C1458.04,435.379 1457.2,434.196 1456.49,432.938C1455.31,430.843 1454.54,428.577 1454,426.239L1453.9,425.857C1450.22,421.172 1452.76,413.07 1452.73,408.488C1452.73,408.365 1452.68,408.247 1452.66,408.126C1452.59,407.766 1452.51,407.406 1452.43,407.047C1452.17,405.86 1451.88,404.68 1451.55,403.509C1450.38,399.262 1448.8,395.143 1446.83,391.203L1374.16,390.949C1370.15,407.32 1366.14,423.693 1362.12,440.063C1362.1,440.148 1362.03,440.245 1361.98,440.321C1361.87,440.525 1361.74,440.717 1361.59,440.898C1361.07,441.54 1360.38,442.032 1359.66,442.43C1358.48,443.083 1357.19,443.518 1355.89,443.864C1355.38,444.001 1354.87,444.123 1354.35,444.234C1351.79,444.783 1349.17,445.076 1346.56,445.276C1343.11,445.54 1339.63,445.623 1336.17,445.624C1329.99,445.624 1323.81,445.623 1317.63,445.624C1304.66,445.625 1291.7,446.231 1278.74,446.623C1272.82,446.802 1266.89,446.957 1260.97,447.003C1256.8,447.035 1252.63,446.978 1248.46,447.046C1241.55,447.159 1234.65,447.466 1227.75,447.477ZM1621.03,431.192L1620.46,431.192C1616.45,420.535 1614.44,408.179 1614.44,394.124L1614.44,85.537C1614.44,84.455 1614.94,83.529 1615.95,82.756C1616.95,81.984 1618.53,81.444 1620.7,81.135C1622.86,80.826 1624.75,80.594 1626.37,80.44C1627.99,80.285 1630.31,80.169 1633.32,80.092C1636.33,80.015 1638.38,79.976 1639.46,79.976L1827.58,79.976C1843.02,79.976 1857.62,82.409 1871.37,87.274C1883.66,91.627 1894.73,97.742 1904.55,105.619C1913.63,109.97 1921.94,115.423 1929.48,121.977C1940.14,131.244 1948.56,143.214 1954.73,157.887C1960.91,172.559 1964,189.085 1964,207.464C1964,221.056 1962.42,233.489 1959.25,244.764C1956.09,256.038 1951.91,265.653 1946.74,273.607C1941.57,281.561 1935.23,288.704 1927.74,295.037C1920.25,301.369 1912.61,306.466 1904.81,310.327C1897.01,314.188 1888.4,317.47 1878.98,320.173C1869.56,322.876 1860.87,324.845 1852.91,326.081C1844.96,327.316 1836.58,328.243 1827.78,328.861L1783.3,328.861C1782.06,353.109 1781.44,380.292 1781.44,410.409L1781.44,436.357C1780.98,441.917 1778.35,444.697 1773.57,444.697L1641.98,444.697C1624.21,445.07 1621.36,432.092 1621.36,432.092C1621.25,431.793 1621.14,431.493 1621.03,431.192ZM1409.61,188.194C1406,197.231 1402.98,207.207 1400.57,218.121L1382.64,295.894C1394.87,295.882 1406.07,295.148 1416.25,293.694C1426.52,292.227 1431.65,289.872 1431.65,286.628L1409.61,188.194ZM1809.02,170.474C1806.16,169.711 1802.72,169.106 1798.7,168.659C1793.84,168.119 1789.82,167.81 1786.65,167.733C1783.49,167.655 1779.43,167.617 1774.49,167.617C1769.39,170.018 1766.77,194.588 1766.62,241.328C1768,241.163 1769.36,240.972 1770.7,240.757C1776.5,239.83 1782.17,238.209 1787.73,235.892C1793.29,233.575 1798.08,230.602 1802.1,226.972C1806.11,223.343 1809.35,218.71 1811.83,213.072C1814.3,207.435 1815.53,201.064 1815.53,193.959C1815.53,188.553 1814.8,183.727 1813.33,179.48C1812.11,175.942 1810.67,172.94 1809.02,170.474ZM1054.82,169.905C1052.99,169.482 1051,169.144 1048.87,168.891C1044.31,168.35 1040.72,168.003 1038.1,167.848C1035.47,167.694 1032.31,167.617 1028.6,167.617L1023.04,167.617C1020.72,168.698 1019.22,170.86 1018.52,174.104C1017.83,177.347 1017.48,182.289 1017.48,188.931C1017.48,198.198 1017.56,205.07 1017.71,209.549C1017.87,214.028 1018.72,219.898 1020.26,227.157C1020.31,227.398 1020.36,227.636 1020.42,227.873C1021.66,227.642 1022.9,227.381 1024.12,227.088C1029.91,225.698 1035.51,223.459 1040.91,220.37C1046.32,217.281 1050.6,212.686 1053.77,206.585C1056.94,200.485 1058.52,193.187 1058.52,184.692C1058.52,179.904 1057.67,175.696 1055.97,172.066C1055.62,171.314 1055.23,170.594 1054.82,169.905Z" style="fill:rgb(7,16,19);fill-rule:nonzero;stroke:rgb(245,239,213);stroke-width:56.2px;"/>
    </g>
    <g transform="matrix(1.11214,0,0,1.11214,-117.752,-37.7828)">
        <g transform="matrix(1.08481,0,0,1.08481,-108.129,-572.233)">
            <path d="M276.671,779.228C266.314,773.996 257.816,768.325 251.179,762.218C236.017,748.265 228.435,729.187 228.435,704.984C228.435,687.899 231.567,672.558 237.832,658.962C244.096,645.365 252.283,634.26 262.391,625.646C272.5,617.033 284.459,609.843 298.269,604.077C312.08,598.311 326.032,594.253 340.127,591.904C354.222,589.555 368.815,588.38 383.907,588.38C423.914,588.38 455.805,595.784 479.582,610.59C480.791,611.8 481.956,612.969 483.077,614.099L483.088,614.104C486.817,615.741 490.475,617.531 494.028,619.521C494.992,620.06 495.949,620.614 496.896,621.181C497.273,621.407 497.649,621.635 498.023,621.865C498.209,621.979 498.419,622.063 498.582,622.21C498.648,622.27 501.635,625.273 501.73,625.369C504.461,628.117 507.179,630.878 509.874,633.662C513.313,637.217 516.779,640.777 519.963,644.566C523.149,648.358 526.051,652.386 528.732,656.549C532.317,662.115 535.35,668.069 537.125,674.468C538.638,679.924 539.444,685.581 539.999,691.206C540.123,692.459 540.232,693.714 540.327,694.969C540.328,694.979 539.655,700.049 536.751,702.217C536.017,702.765 530.92,704.288 530.005,704.322C528.153,704.392 526.301,704.458 524.449,704.523C517.749,704.754 511.048,704.951 504.346,705.118C486.658,705.559 468.965,705.795 451.271,705.884C449.058,705.895 446.844,705.904 444.631,705.911C442.389,705.917 440.148,705.922 437.907,705.924C433.373,705.928 428.707,706.044 424.32,704.698C422.462,704.128 418.962,702.817 417.188,701.971C413.225,700.083 407.071,695.668 404.515,693.75C402.156,691.98 399.888,690.533 398.963,688.967C398.293,687.833 397.623,686.662 396.953,685.454L396.8,685.464C394.817,685.621 392.84,685.948 390.889,686.331C389.448,686.614 388.016,686.943 386.591,687.299C385.479,687.577 384.368,687.864 383.267,688.182C382.455,688.416 381.654,688.685 380.866,688.993C380.108,689.289 379.364,689.621 378.639,689.99C378.109,690.26 377.59,690.551 377.082,690.861C374.785,692.268 372.506,694.124 371.655,696.783C371.513,697.227 371.413,697.683 371.357,698.146C371.272,698.844 371.284,699.556 371.375,700.253C371.502,701.224 371.799,702.157 372.22,703.039L372.236,703.073C374.704,703.781 377.455,704.525 380.49,705.304C385.758,706.657 389.032,707.547 390.314,707.974C421.351,715.804 439.86,720.645 445.839,722.496C467.141,729.207 484.19,737.348 496.986,746.918L497.207,747.029C508.728,752.907 519.774,760.174 528.507,769.816C531.861,773.52 534.824,777.577 537.366,781.878C542.405,790.402 545.682,799.863 547.401,809.599C548.649,816.671 549.078,823.856 548.961,831.031C548.82,839.719 547.935,848.413 546.039,856.899C544.853,862.208 543.249,867.419 541.302,872.497C538.756,879.139 535.573,885.563 531.548,891.437C526.975,898.11 521.354,904.053 515.125,909.201C511.165,912.473 506.94,915.415 502.595,918.152C496.264,922.139 489.61,925.646 482.671,928.455C475.619,931.31 468.354,933.608 460.988,935.503C456.268,936.717 451.505,937.754 446.727,938.715C440.079,940.052 433.393,941.211 426.67,942.107C420.661,942.907 414.622,943.495 408.58,943.994C404.684,944.316 400.783,944.592 396.881,944.828C395.87,944.889 394.859,944.947 393.848,945.003C393.807,945.005 391.839,945.113 391.802,945.113C391.278,945.11 390.755,945.068 390.232,945.044C389.195,944.997 388.158,944.946 387.122,944.893C384.587,944.762 382.054,944.611 379.522,944.439C370.63,943.833 361.751,942.966 352.925,941.714C347.652,940.967 342.4,940.084 337.193,938.96C328.8,937.149 320.529,934.771 312.459,931.835C307.632,930.079 302.874,928.135 298.261,925.871C291.993,922.796 286.015,919.158 280.489,914.887L280.355,914.781C271.524,910.559 263.863,905.584 257.373,899.857C248.901,892.383 241.854,882.808 236.23,871.133C230.606,859.459 227.154,845.933 225.873,830.557C225.873,827.852 227.296,826.286 230.144,825.859C230.998,826.143 232.422,826.286 234.415,826.286C246.232,826.286 264.171,826.001 288.232,825.432C312.293,824.862 330.232,824.577 342.049,824.577C345.039,824.577 347.624,824.292 350.097,825C356.805,826.922 365.609,837.07 366.6,837.752C367.558,838.413 371.188,843.532 371.952,845.358C372.421,846.478 372.842,847.616 373.325,848.73C373.857,849.961 374.429,851.173 375.024,852.374L375.151,852.626C376.31,852.72 377.521,852.767 378.781,852.767C385.758,852.767 391.915,850.81 397.254,846.894C402.593,842.979 405.263,837.676 405.263,830.984C405.263,827.872 404.13,824.936 401.865,822.178L401.783,822.15C400.068,821.556 398.333,821.022 396.597,820.491C394.33,819.797 392.057,819.124 389.777,818.476C381.648,816.164 373.432,814.182 365.138,812.555C360.913,811.727 356.668,811.021 352.427,810.283C350.737,809.989 349.047,809.692 347.361,809.377C346.514,809.219 345.652,809.082 344.819,808.862C340.619,807.752 336.449,806.516 332.3,805.231C324.985,802.965 317.742,800.453 310.638,797.589C298.717,792.784 287.057,786.997 276.735,779.276L276.671,779.228Z" style="fill:var(--background);fill-rule:nonzero;"/>
            <path d="M622.939,917.492C618.969,915.562 615.247,913.492 611.775,911.283C600.812,904.306 591.131,895.8 582.731,885.762C574.331,875.725 567.639,865.403 562.656,854.796C557.673,844.189 553.651,832.586 550.59,819.986C547.529,807.386 545.465,795.64 544.397,784.748C543.329,773.857 542.795,762.503 542.795,750.686L542.795,731.892C544.219,711.106 549.06,692.419 557.317,675.833C565.575,659.246 575.612,645.863 587.429,635.684C599.246,625.504 612.772,617.033 628.006,610.27C643.24,603.507 658.046,598.809 672.426,596.175C686.806,593.541 701.114,592.224 715.352,592.224C738.274,592.224 758.526,594.965 776.109,600.446C791.196,605.149 803.898,611.503 814.216,619.508C823.396,623.918 831.371,629.161 838.142,635.237C849.247,645.204 857.932,656.629 864.196,669.514C870.461,682.399 874.447,696.814 876.155,712.76L876.155,733.261C876.155,737.817 860.494,740.095 829.172,740.095C821.769,740.095 811.482,739.953 798.313,739.668C785.143,739.383 776.494,739.241 772.365,739.241C771.653,739.241 770.586,739.312 769.162,739.455C737.822,742.589 735.32,716.658 734.679,712.245C734.038,707.831 733.255,703.418 732.33,699.004C732.027,697.559 731.617,696.186 731.1,694.886L730.682,694.911C726.777,695.189 722.868,695.989 719.332,697.715C716.562,699.067 714.129,701.028 712.224,703.451C710.92,705.11 709.863,706.967 708.839,708.806C706.903,712.285 705.153,715.943 704.041,719.775C702.502,725.077 701.98,730.599 701.459,736.073C701.177,739.039 700.93,742.009 700.759,744.983C700.386,751.46 700.275,757.951 700.129,764.436C700.068,767.137 700.001,769.838 699.915,772.538C699.87,773.968 699.798,775.398 699.755,776.828C699.73,777.668 699.727,778.509 699.695,779.35C699.494,784.581 699.041,789.799 698.927,795.034C698.859,798.205 698.913,801.382 699.04,804.552C699.239,809.526 699.658,814.5 700.449,819.417C701.611,826.639 703.549,833.968 707.452,840.228L707.527,840.345C707.712,840.359 707.901,840.371 708.091,840.381C713.216,840.381 717.416,838.53 720.691,834.828C723.965,831.127 726.208,826.998 727.418,822.442C728.628,817.886 730.016,813.081 731.582,808.026C733.148,802.972 734.857,799.52 736.708,797.669L852.884,797.669C857.583,798.096 877.832,797.818 879.266,815.752C879.302,816.209 879.442,816.652 879.498,817.106C879.526,817.332 879.59,817.604 879.572,817.831C879.562,817.974 879.354,819.683 879.336,819.826C879.133,821.47 878.909,823.112 878.663,824.75C878.469,826.044 878.262,827.336 878.041,828.625C877.767,830.216 877.473,831.804 877.157,833.388C876.721,835.569 876.243,837.742 875.722,839.904C873.374,849.645 870.129,859.179 865.861,868.25C860.682,879.257 854.037,889.634 845.984,898.763C841.157,904.236 835.815,909.252 830.033,913.704C812.391,927.287 791.54,936.27 769.886,941.144C754.58,944.589 738.869,946.019 723.194,945.965C713.946,945.934 704.693,945.422 695.512,944.292C685.027,943.002 674.675,940.859 664.559,937.813C655.124,934.972 645.875,931.385 637.205,926.68C632.349,924.046 627.72,921.026 623.278,917.745L622.939,917.492Z" style="fill:var(--background);fill-rule:nonzero;"/>
            <path d="M912.034,938.706C891.04,939.383 887.047,928.235 887.054,924.096L887.054,605.465C887.054,601.479 892.749,599.485 904.139,599.485L1090.36,599.485C1122,600.322 1146.24,607.708 1163.08,621.645C1170.67,625.016 1177.36,629.191 1183.15,634.17C1200.02,648.692 1208.45,669.193 1208.45,695.675C1208.45,729.564 1191.65,754.5 1158.05,770.48C1159.07,771.277 1160.06,772.086 1161.01,772.907C1165.58,774.697 1169.79,776.929 1173.64,779.604C1178.77,783.163 1183.04,786.972 1186.46,791.029C1189.88,795.087 1192.87,799.963 1195.43,805.658C1197.99,811.353 1199.98,816.692 1201.41,821.675C1202.83,826.658 1204.08,832.567 1205.14,839.401C1206.21,846.235 1206.96,852.143 1207.39,857.126C1207.81,862.109 1208.35,868.053 1208.99,874.958C1209.63,881.863 1210.16,887.309 1210.59,891.296L1210.59,910.089C1211.02,912.367 1212.33,915.57 1214.54,919.699C1216.75,923.828 1218.14,926.889 1218.7,928.882C1218.7,931.73 1218.14,933.153 1217,933.153C1213.87,936.286 1207.28,938.136 1197.24,938.706C1187.2,939.275 1174.86,939.133 1160.19,938.279C1145.53,937.425 1137.69,936.997 1136.7,936.997C1127.02,936.997 1120.04,936.855 1115.77,936.57L1094.41,936.57C1076.59,936.672 1071.09,924.951 1071.09,924.951C1069.96,921.954 1069.65,919.291 1067.51,910.962C1065.38,902.634 1063.28,890.674 1061.21,875.084C1059.15,859.494 1058.04,851.201 1057.9,850.205C1057.5,840.223 1056.24,832.65 1054.12,827.488C1052.3,827.314 1050.36,827.228 1048.29,827.228L1038.89,827.228L1038.89,931.445C1038.6,933.153 1037.11,934.577 1034.4,935.716C1031.7,936.855 1027.82,937.603 1022.76,937.958C1017.71,938.314 1013.23,938.528 1009.31,938.599C1005.39,938.67 1000.23,938.635 993.827,938.492C987.42,938.35 983.505,938.279 982.081,938.279L951.329,938.279C933.959,938.279 920.861,938.421 912.034,938.706ZM1072.38,684.199C1070.59,683.77 1068.65,683.431 1066.54,683.182C1062.34,682.683 1059.03,682.363 1056.61,682.221C1054.19,682.078 1051.28,682.007 1047.86,682.007L1042.73,682.007C1040.6,683.004 1039.21,684.997 1038.57,687.987C1037.93,690.976 1037.61,695.532 1037.61,701.654C1037.61,710.197 1037.68,716.532 1037.82,720.661C1037.96,724.79 1038.75,730.2 1040.17,736.892C1040.29,737.438 1040.41,737.971 1040.53,738.492C1041.89,738.253 1043.23,737.976 1044.55,737.659C1049.89,736.377 1055.05,734.313 1060.04,731.465C1065.02,728.618 1068.97,724.382 1071.89,718.758C1074.81,713.135 1076.27,706.408 1076.27,698.577C1076.27,694.163 1075.49,690.284 1073.92,686.938C1073.46,685.968 1072.95,685.055 1072.38,684.199Z" style="fill:var(--background);fill-rule:nonzero;"/>
            <g transform="matrix(1.7309,0,0,1.7309,-622.504,-106.239)">
                <path d="M1067.63,600C1072.73,581.164 1078.37,562.04 1084.53,542.628C1090.7,523.216 1098.37,500 1107.54,472.979C1116.72,445.959 1122.99,427.267 1126.36,416.903C1127.35,415.257 1128.01,414.27 1128.33,413.941L1149.06,413.941C1153.91,413.941 1161.07,413.859 1170.53,413.695C1179.99,413.53 1187.15,413.448 1192,413.448L1212.73,413.448C1213.96,413.448 1214.99,413.468 1215.81,413.51C1216.63,413.551 1217.62,413.653 1218.77,413.818C1219.92,413.983 1220.85,414.229 1221.55,414.558C1222.25,414.887 1222.84,415.381 1223.34,416.039C1223.83,416.697 1224.08,417.478 1224.08,418.383L1280.96,598.643C1280.96,600.288 1280.36,601.419 1279.17,602.036C1277.98,602.653 1275.73,602.961 1272.44,602.961L1261.09,602.961C1257.8,602.961 1252.91,603.002 1246.41,603.085C1239.91,603.167 1235.02,603.208 1231.73,603.208C1230.74,603.208 1228.75,603.27 1225.74,603.393C1222.74,603.516 1220.21,603.557 1218.15,603.516C1216.1,603.475 1213.82,603.352 1211.31,603.146C1208.8,602.941 1206.78,602.488 1205.26,601.789C1203.74,601.09 1202.77,600.165 1202.36,599.013L1202.36,590.87C1201.54,586.757 1200.1,582.973 1198.04,579.519C1195.99,576.064 1193.81,574.337 1191.51,574.337L1149.06,574.337L1142.65,600.494C1141.74,602.468 1137.13,603.455 1128.83,603.455L1118.96,603.455C1115.42,603.455 1110.16,603.578 1103.16,603.825C1096.17,604.072 1090.91,604.195 1087.37,604.195L1083.92,604.195C1082.6,604.195 1080.52,604.236 1077.69,604.318C1074.85,604.401 1072.65,604.442 1071.09,604.442C1070.43,603.784 1069.28,602.303 1067.63,600ZM1153.26,525.108L1156.71,530.907L1164.86,530.907C1171.43,530.907 1177.46,530.516 1182.93,529.734C1188.4,528.953 1191.13,527.699 1191.13,525.971L1175.22,454.904C1173.74,454.904 1171.74,457.701 1169.24,463.294C1166.73,468.887 1164.69,475.221 1163.13,482.294L1153.26,525.108Z" style="fill:var(--background);fill-rule:nonzero;"/>
            </g>
            <g transform="matrix(1.7309,0,0,1.7309,-641.504,-117.859)">
                <path d="M1067.63,600C1072.73,581.164 1078.37,562.04 1084.53,542.628C1090.7,523.216 1098.37,500 1107.54,472.979C1116.72,445.959 1122.99,427.267 1126.36,416.903C1127.35,415.257 1128.01,414.27 1128.33,413.941L1149.06,413.941C1153.91,413.941 1161.07,413.859 1170.53,413.695C1179.99,413.53 1187.15,413.448 1192,413.448L1212.73,413.448C1234.18,412.87 1234.31,421.847 1234.31,422.752L1280.96,598.643C1280.96,600.288 1280.36,601.419 1279.17,602.036C1277.98,602.653 1275.73,602.961 1272.44,602.961L1261.09,602.961C1257.8,602.961 1252.91,603.002 1246.41,603.085C1239.91,603.167 1235.02,603.208 1231.73,603.208C1230.74,603.208 1228.75,603.27 1225.74,603.393C1222.74,603.516 1220.21,603.557 1218.15,603.516C1216.1,603.475 1230.57,605.085 1228.06,604.879C1225.55,604.674 1221.63,609.57 1219.96,609.674C1203.42,610.708 1202.77,600.165 1202.36,599.013L1202.36,590.87C1201.54,586.757 1200.1,582.973 1198.04,579.519C1195.99,576.064 1193.81,574.337 1191.51,574.337L1149.06,574.337L1142.65,600.494C1141.74,602.468 1137.13,603.455 1128.83,603.455L1118.96,603.455C1115.42,603.455 1110.16,603.578 1103.16,603.825C1096.17,604.072 1090.91,604.195 1087.37,604.195L1083.92,604.195C1082.6,604.195 1084.9,611.073 1082.06,611.155C1079.22,611.237 1072.65,604.442 1071.09,604.442C1070.43,603.784 1069.28,602.303 1067.63,600ZM1153.26,525.108L1156.71,530.907L1164.86,530.907C1171.43,530.907 1177.46,530.516 1182.93,529.734C1188.4,528.953 1191.13,527.699 1191.13,525.971L1175.22,454.904C1173.74,454.904 1171.74,457.701 1169.24,463.294C1166.73,468.887 1164.69,475.221 1163.13,482.294L1153.26,525.108Z" style="fill:var(--background);fill-rule:nonzero;"/>
            </g>
            <g transform="matrix(1,0,0,1,17,1.13687e-13)">
                <path d="M1596.28,937.425C1579.9,937.768 1577.28,925.805 1577.28,925.805C1573.58,915.981 1571.73,904.591 1571.73,891.635L1571.73,607.173C1571.73,606.177 1572.19,605.323 1573.12,604.611C1574.04,603.899 1575.5,603.401 1577.49,603.116C1579.49,602.831 1581.23,602.618 1582.73,602.475C1584.22,602.333 1586.36,602.226 1589.13,602.155C1591.91,602.084 1593.8,602.048 1594.79,602.048L1768.2,602.048C1782.44,602.048 1795.89,604.29 1808.57,608.775C1819.32,612.583 1829.05,617.853 1837.76,624.586C1846.35,628.641 1854.2,633.758 1861.31,639.936C1871.13,648.478 1878.89,659.512 1884.59,673.037C1890.28,686.563 1893.13,701.797 1893.13,718.739C1893.13,731.268 1891.67,742.729 1888.75,753.122C1885.83,763.516 1881.99,772.378 1877.22,779.711C1872.45,787.043 1866.61,793.628 1859.7,799.465C1852.8,805.302 1845.75,810.001 1838.56,813.56C1831.37,817.119 1823.44,820.145 1814.75,822.636C1806.07,825.128 1798.06,826.943 1790.73,828.082C1783.39,829.221 1775.67,830.075 1767.55,830.645L1726.55,830.645C1725.41,852.997 1724.84,878.055 1724.84,905.818L1724.84,929.736C1724.41,934.862 1722,937.425 1717.58,937.425L1596.28,937.425ZM1750.58,684.725C1747.88,683.982 1744.61,683.396 1740.75,682.968C1736.27,682.47 1732.57,682.185 1729.65,682.114C1726.73,682.043 1722.99,682.007 1718.44,682.007C1713.7,684.236 1711.28,707.195 1711.18,750.881C1712.73,750.708 1714.26,750.5 1715.77,750.259C1721.11,749.404 1726.34,747.909 1731.47,745.774C1736.6,743.638 1741.01,740.898 1744.71,737.552C1748.41,734.206 1751.4,729.935 1753.68,724.738C1755.96,719.542 1757.1,713.669 1757.1,707.119C1757.1,702.136 1756.42,697.687 1755.07,693.772C1753.82,690.146 1752.32,687.13 1750.58,684.725Z" style="fill:var(--background);fill-rule:nonzero;"/>
            </g>
        </g>
        <g transform="matrix(1.08481,0,0,1.08481,-109.029,-573.133)">
            <g transform="matrix(1.7309,0,0,1.7309,-658.504,-117.859)">
                <path d="M595.821,607.403C586.115,606.992 577.397,606.148 569.665,604.874C561.933,603.599 554.468,601.542 547.271,598.704C540.074,595.867 534.028,592.289 529.134,587.97C524.24,583.652 520.168,578.12 516.919,571.376C513.67,564.631 511.676,556.817 510.935,547.933C510.935,546.37 511.758,545.466 513.403,545.219C513.896,545.383 514.719,545.466 515.87,545.466C522.698,545.466 533.062,545.301 546.963,544.972C560.863,544.643 571.227,544.479 578.055,544.479C579.782,544.479 581.139,545.034 582.126,546.144C583.113,547.255 583.915,548.612 584.532,550.216C585.149,551.82 585.889,553.424 586.753,555.028C587.617,556.632 589.097,557.989 591.195,559.099C593.292,560.21 595.986,560.765 599.276,560.765C603.307,560.765 606.864,559.634 609.949,557.372C613.033,555.11 614.575,552.046 614.575,548.18C614.575,545.63 613.259,543.286 610.627,541.147C607.995,539.009 604.52,537.261 600.201,535.904C595.883,534.546 591.77,533.395 587.863,532.449C583.956,531.503 579.946,530.68 575.834,529.981C571.721,529.282 569.336,528.85 568.678,528.686C548.69,523.257 534.316,516.512 525.556,508.451C516.796,500.39 512.416,489.368 512.416,475.385C512.416,465.515 514.225,456.652 517.845,448.797C521.464,440.941 526.193,434.525 532.033,429.549C537.873,424.573 544.783,420.419 552.761,417.088C560.74,413.756 568.801,411.412 576.944,410.055C585.087,408.698 593.518,408.019 602.237,408.019C625.351,408.019 643.776,412.296 657.512,420.851C662.529,425.868 666.21,429.672 668.555,432.263C670.899,434.854 673.161,437.877 675.34,441.332C677.52,444.787 679.042,448.18 679.906,451.511C680.769,454.842 681.366,458.934 681.695,463.787L677.253,468.229C660.391,468.887 641.472,469.216 620.498,469.216C617.865,469.216 615.747,468.928 614.143,468.352C612.54,467.777 611.47,467.036 610.936,466.132C610.401,465.227 609.866,464.281 609.332,463.294C608.797,462.307 608.303,461.361 607.851,460.456C607.399,459.551 606.453,458.811 605.013,458.235C603.574,457.659 601.661,457.372 599.276,457.372C598.618,457.372 597.569,457.495 596.13,457.742C594.69,457.988 593.004,458.379 591.071,458.914C589.138,459.448 587.473,460.271 586.074,461.381C584.676,462.492 583.977,463.787 583.977,465.268C583.977,467.077 584.902,468.723 586.753,470.203C588.604,471.684 590.557,472.753 592.613,473.411C594.67,474.069 597.22,474.789 600.263,475.57C603.307,476.352 605.198,476.866 605.939,477.112C623.87,481.636 634.563,484.433 638.018,485.502C656.031,491.178 668.781,498.622 676.266,507.834C683.175,516.389 686.63,527.123 686.63,540.037C686.63,547.851 685.622,554.966 683.607,561.382C681.592,567.798 678.939,573.226 675.649,577.668C672.359,582.11 668.246,586.058 663.311,589.513C658.376,592.967 653.379,595.723 648.32,597.779C643.261,599.835 637.524,601.563 631.108,602.961C624.693,604.359 618.791,605.367 613.403,605.984C608.016,606.601 602.155,607.074 595.821,607.403Z" style="fill:rgb(7,16,19);fill-rule:nonzero;"/>
            </g>
            <g transform="matrix(1.7309,0,0,1.7309,-658.504,-117.859)">
                <path d="M877.624,533.868C876.225,546.206 872.976,557.125 867.877,566.625C862.777,576.126 856.238,583.858 848.259,589.821C840.28,595.784 831.212,600.288 821.054,603.331C810.895,606.375 799.811,607.896 787.802,607.896C776.616,607.896 766.416,606.683 757.204,604.257C747.991,601.83 740.218,598.602 733.885,594.571C727.551,590.541 721.958,585.626 717.105,579.827C712.252,574.028 708.386,568.065 705.507,561.937C702.628,555.809 700.305,549.105 698.536,541.826C696.768,534.546 695.575,527.76 694.958,521.468C694.341,515.176 694.033,508.616 694.033,501.789L694.033,490.931C694.855,478.922 697.652,468.126 702.423,458.544C707.193,448.961 712.992,441.229 719.819,435.348C726.646,429.467 734.461,424.573 743.262,420.666C752.063,416.759 760.617,414.044 768.925,412.522C777.233,411.001 785.499,410.24 793.725,410.24C806.968,410.24 818.668,411.823 828.827,414.99C838.985,418.157 847.272,422.619 853.688,428.377C860.104,434.135 865.121,440.736 868.74,448.18C872.359,455.624 874.663,463.952 875.65,473.164L875.65,485.009C875.65,487.641 866.602,488.957 848.506,488.957C844.229,488.957 838.286,488.875 830.677,488.71C823.069,488.546 818.072,488.464 815.686,488.464C815.275,488.464 814.658,488.505 813.836,488.587C813.013,488.669 812.396,488.71 811.985,488.71C809.846,488.71 808.222,487.826 807.111,486.058C806.001,484.289 805.261,482.13 804.891,479.58C804.52,477.03 804.068,474.48 803.533,471.93C802.999,469.381 801.888,467.221 800.202,465.453C798.516,463.685 796.192,462.8 793.231,462.8C790.27,462.8 787.679,463.294 785.458,464.281C783.237,465.268 781.469,466.81 780.153,468.908C778.837,471.005 777.747,473.123 776.883,475.262C776.019,477.4 775.403,480.176 775.032,483.59C774.662,487.004 774.415,489.882 774.292,492.227C774.169,494.571 774.066,497.697 773.984,501.604C773.901,505.511 773.819,508.369 773.737,510.179C773.737,511.166 773.655,512.975 773.49,515.607C773.326,518.239 773.243,520.378 773.243,522.023C773.243,542.504 778.672,553.033 789.53,553.609C792.491,553.609 794.917,552.539 796.809,550.401C798.701,548.262 799.996,545.877 800.696,543.245C801.395,540.613 802.197,537.837 803.102,534.916C804.006,531.996 804.993,530.002 806.063,528.933L873.182,528.933C875.896,529.179 877.377,530.824 877.624,533.868Z" style="fill:rgb(7,16,19);fill-rule:nonzero;"/>
            </g>
            <g transform="matrix(1.7309,0,0,1.7309,-658.504,-117.859)">
                <path d="M1072.57,600.494C1070.76,602.303 1066.95,603.372 1061.15,603.701C1055.35,604.03 1048.22,603.948 1039.75,603.455C1031.27,602.961 1026.75,602.714 1026.17,602.714C1020.58,602.714 1016.55,602.632 1014.08,602.468L1001.75,602.468C999.935,601.892 998.414,599.198 997.18,594.386C995.946,589.574 994.733,582.665 993.54,573.658C992.348,564.651 991.71,559.86 991.628,559.284C991.299,551.141 989.983,545.774 987.68,543.183C985.377,540.592 981.182,539.297 975.095,539.297L969.666,539.297L969.666,599.506C969.501,600.494 968.638,601.316 967.075,601.974C965.512,602.632 963.271,603.064 960.351,603.27C957.431,603.475 954.84,603.599 952.578,603.64C950.316,603.681 947.334,603.66 943.633,603.578C939.931,603.496 937.669,603.455 936.847,603.455L919.08,603.455C909.045,603.455 901.477,603.537 896.378,603.701C895.226,603.208 894.075,602.632 892.923,601.974L892.923,417.89C892.923,415.586 896.213,414.435 902.793,414.435L1010.38,414.435C1029.05,414.928 1043.26,419.37 1053.01,427.76C1062.76,436.15 1067.63,447.995 1067.63,463.294C1067.63,483.199 1057.6,497.758 1037.53,506.971C1041.23,508.122 1044.56,509.726 1047.52,511.783C1050.48,513.839 1052.95,516.039 1054.92,518.383C1056.9,520.728 1058.62,523.545 1060.1,526.835C1061.59,530.125 1062.74,533.21 1063.56,536.089C1064.38,538.968 1065.1,542.381 1065.72,546.329C1066.34,550.277 1066.77,553.691 1067.01,556.57C1067.26,559.449 1067.57,562.883 1067.94,566.872C1068.31,570.862 1068.62,574.008 1068.86,576.311L1068.86,587.168C1069.11,588.484 1069.87,590.335 1071.15,592.721C1072.42,595.106 1073.22,596.874 1073.55,598.026C1073.55,599.671 1073.22,600.494 1072.57,600.494ZM968.926,466.748C968.926,471.684 968.967,475.344 969.049,477.729C969.131,480.115 969.584,483.24 970.406,487.106C971.229,490.972 972.463,493.728 974.108,495.373C977.562,495.373 980.832,495.003 983.916,494.262C987.001,493.522 989.983,492.329 992.862,490.684C995.741,489.039 998.023,486.592 999.709,483.343C1001.39,480.094 1002.24,476.208 1002.24,471.684C1002.24,469.134 1001.79,466.892 1000.88,464.959C999.977,463.026 998.661,461.484 996.933,460.333C995.206,459.181 993.499,458.256 991.813,457.557C990.127,456.857 988.07,456.364 985.644,456.076C983.217,455.788 981.305,455.603 979.907,455.521C978.508,455.439 976.822,455.397 974.848,455.397L971.887,455.397C970.653,455.973 969.851,457.125 969.481,458.852C969.111,460.579 968.926,463.212 968.926,466.748Z" style="fill:rgb(7,16,19);fill-rule:nonzero;"/>
            </g>
            <g transform="matrix(1.7309,0,0,1.7309,-641.504,-117.859)">
                <path d="M1067.63,600C1072.73,581.164 1078.37,562.04 1084.53,542.628C1090.7,523.216 1098.37,500 1107.54,472.979C1116.72,445.959 1122.99,427.267 1126.36,416.903C1127.35,415.257 1128.01,414.27 1128.33,413.941L1149.06,413.941C1153.91,413.941 1161.07,413.859 1170.53,413.695C1179.99,413.53 1187.15,413.448 1192,413.448L1212.73,413.448C1213.96,413.448 1214.99,413.468 1215.81,413.51C1216.63,413.551 1217.62,413.653 1218.77,413.818C1219.92,413.983 1220.85,414.229 1221.55,414.558C1222.25,414.887 1222.84,415.381 1223.34,416.039C1223.83,416.697 1224.08,417.478 1224.08,418.383L1280.96,598.643C1280.96,600.288 1280.36,601.419 1279.17,602.036C1277.98,602.653 1275.73,602.961 1272.44,602.961L1261.09,602.961C1257.8,602.961 1252.91,603.002 1246.41,603.085C1239.91,603.167 1235.02,603.208 1231.73,603.208C1230.74,603.208 1228.75,603.27 1225.74,603.393C1222.74,603.516 1220.21,603.557 1218.15,603.516C1216.1,603.475 1213.82,603.352 1211.31,603.146C1208.8,602.941 1206.78,602.488 1205.26,601.789C1203.74,601.09 1202.77,600.165 1202.36,599.013L1202.36,590.87C1201.54,586.757 1200.1,582.973 1198.04,579.519C1195.99,576.064 1193.81,574.337 1191.51,574.337L1149.06,574.337L1142.65,600.494C1141.74,602.468 1137.13,603.455 1128.83,603.455L1118.96,603.455C1115.42,603.455 1110.16,603.578 1103.16,603.825C1096.17,604.072 1090.91,604.195 1087.37,604.195L1083.92,604.195C1082.6,604.195 1080.52,604.236 1077.69,604.318C1074.85,604.401 1072.65,604.442 1071.09,604.442C1070.43,603.784 1069.28,602.303 1067.63,600ZM1153.26,525.108L1156.71,530.907L1164.86,530.907C1171.43,530.907 1177.46,530.516 1182.93,529.734C1188.4,528.953 1191.13,527.699 1191.13,525.971L1175.22,454.904C1173.74,454.904 1171.74,457.701 1169.24,463.294C1166.73,468.887 1164.69,475.221 1163.13,482.294L1153.26,525.108Z" style="fill:rgb(7,16,19);fill-rule:nonzero;"/>
            </g>
            <g transform="matrix(1.7309,0,0,1.7309,-641.504,-117.859)">
                <path d="M1288.48,583.22L1288.48,418.877C1288.48,418.301 1288.75,417.807 1289.29,417.396C1289.82,416.985 1290.66,416.697 1291.81,416.532C1292.96,416.368 1293.97,416.244 1294.84,416.162C1295.7,416.08 1296.93,416.018 1298.54,415.977C1300.14,415.936 1301.23,415.915 1301.81,415.915L1401.99,415.915C1410.22,415.915 1417.99,417.211 1425.31,419.802C1432.63,422.393 1439.13,426.156 1444.81,431.091C1450.48,436.027 1454.96,442.401 1458.26,450.215C1461.55,458.03 1463.19,466.831 1463.19,476.619C1463.19,483.857 1462.35,490.479 1460.66,496.483C1458.98,502.488 1456.75,507.608 1454,511.844C1451.24,516.08 1447.87,519.885 1443.88,523.257C1439.89,526.629 1435.82,529.344 1431.67,531.4C1427.51,533.456 1422.93,535.204 1417.91,536.644C1412.89,538.083 1408.27,539.132 1404.03,539.79C1399.79,540.448 1395.33,540.942 1390.64,541.271L1366.95,541.271C1366.3,554.185 1365.97,568.661 1365.97,584.701L1365.97,598.519C1365.72,601.481 1364.32,602.961 1361.77,602.961L1291.69,602.961C1289.55,597.286 1288.48,590.705 1288.48,583.22ZM1358.07,496.853L1362.02,502.282C1365.39,502.282 1368.62,502.035 1371.7,501.542C1374.79,501.048 1377.81,500.185 1380.77,498.951C1383.73,497.717 1386.28,496.134 1388.42,494.201C1390.56,492.268 1392.29,489.8 1393.6,486.798C1394.92,483.796 1395.58,480.403 1395.58,476.619C1395.58,473.74 1395.19,471.17 1394.4,468.908C1393.62,466.646 1392.68,464.795 1391.57,463.355C1390.46,461.916 1388.93,460.662 1387,459.592C1385.07,458.523 1383.26,457.721 1381.57,457.186C1379.89,456.652 1377.75,456.241 1375.16,455.953C1372.57,455.665 1370.43,455.5 1368.74,455.459C1367.06,455.418 1364.9,455.397 1362.26,455.397C1359.47,456.713 1358.07,470.532 1358.07,496.853Z" style="fill:rgb(7,16,19);fill-rule:nonzero;"/>
            </g>
        </g>
    </g>
    <g transform="matrix(0.522462,0,0,0.522462,507.404,240.1)">
        <g transform="matrix(1.24623,0,0,1.24623,-280.455,-713.605)">
            <path d="M1595.65,1089.29C1601.82,1076.04 1611.84,1054.48 1625.72,1024.6L1639.01,996.606C1647.88,977.013 1653.13,971.408 1656.21,970.313C1667.44,966.313 1694.06,967.391 1722.98,966.342C1751.9,965.292 1776.98,964.476 1798.2,963.893C1819.43,963.309 1840.07,963.018 1860.13,963.018C1865.68,964.206 1873.6,963.303 1885.09,975C1888.44,978.417 1888.65,984.463 1888.87,988.023C1888.91,988.692 1889.52,992.964 1888.93,994.231C1886.91,998.539 1883.84,1002.27 1881.3,1006.3C1876.38,1014.07 1871.47,1021.84 1866.56,1029.61C1864.19,1033.35 1861.82,1037.1 1859.45,1040.85C1826.7,1092.69 1793.96,1144.54 1761.44,1196.52C1753.82,1208.72 1746.2,1220.92 1738.64,1233.14C1736.99,1235.81 1735.34,1238.48 1733.69,1241.15C1732.96,1242.35 1730.75,1243.54 1731.49,1244.74C1753.75,1281.21 1778.17,1316.33 1801.46,1352.15C1804.72,1357.17 1807.92,1362.23 1811.15,1367.26C1815,1373.28 1818.86,1379.29 1822.72,1385.3C1834.9,1404.3 1847.08,1423.29 1859.26,1442.29C1867.18,1454.65 1875.1,1467.01 1883.01,1479.37C1885.5,1483.28 1888,1487.18 1890.49,1491.1C1890.96,1491.84 1891.43,1492.57 1891.9,1493.32C1892.31,1493.96 1893.02,1494.49 1893.13,1495.25C1893.44,1497.56 1893.13,1499.91 1893.13,1502.25C1893.13,1503.47 1892.97,1504.7 1892.6,1505.88C1892.39,1506.53 1892.11,1507.16 1891.77,1507.76C1889.61,1511.52 1885.22,1513.19 1881.18,1514.01C1880.48,1514.15 1879.78,1514.26 1879.08,1514.36C1878.13,1514.5 1877.18,1514.6 1876.22,1514.67C1874.96,1514.77 1873.7,1514.82 1872.44,1514.84C1870.89,1514.86 1869.34,1514.84 1867.79,1514.85C1865.15,1514.85 1862.51,1514.86 1859.87,1514.87C1855.4,1514.88 1850.92,1514.91 1846.44,1514.94C1841.34,1514.98 1836.24,1515.02 1831.14,1515.06C1794.73,1515.39 1758.32,1516.01 1721.91,1516.2C1716.94,1516.22 1711.97,1516.24 1707,1516.24C1701.4,1516.24 1695.8,1516.24 1690.2,1516.24C1684.89,1516.24 1679.54,1515.84 1674.37,1514.6C1670.03,1513.56 1651.37,1508.7 1643.21,1497.62L1591.76,1388.81L1591.25,1390.07C1587.6,1399.1 1583.87,1408.1 1580.02,1417.05C1577.84,1422.09 1575.65,1427.13 1573.44,1432.16C1570.68,1438.46 1567.9,1444.75 1564.93,1450.95C1561.23,1458.66 1557.26,1466.23 1553.05,1473.66C1551.24,1476.86 1549.39,1480.02 1547.49,1483.16C1545.04,1487.21 1542.5,1491.19 1539.69,1494.99C1537.68,1497.72 1535.55,1500.36 1533.28,1502.87C1530.6,1505.83 1527.7,1508.63 1524.43,1510.94C1523.09,1511.89 1521.69,1512.75 1520.22,1513.47C1519.88,1513.64 1519.53,1513.81 1519.18,1513.96C1519.17,1513.97 1518.77,1514.14 1518.76,1514.14C1515.55,1514.12 1512.34,1514.03 1509.13,1513.97C1503.04,1513.87 1496.94,1513.77 1490.85,1513.67C1466.94,1513.28 1443.03,1512.93 1419.12,1512.79C1410.53,1512.74 1401.93,1512.73 1393.34,1512.78C1375.21,1512.88 1357.08,1513.17 1338.96,1513.33C1336.32,1513.36 1333.68,1513.38 1331.04,1513.39C1327.99,1513.41 1324.94,1513.43 1321.9,1513.44C1321.89,1513.44 1318.01,1513.44 1317.93,1513.44C1289.84,1513.44 1292.08,1506.82 1290.93,1501.82C1290.01,1497.79 1290.54,1496.46 1290.54,1492.03C1290.54,1485.5 1294.74,1475.7 1303.13,1462.64C1322.96,1432.32 1351.3,1388.23 1388.15,1330.38C1425.01,1272.54 1446.58,1238.72 1452.88,1228.92C1387.1,1115.8 1337.19,1031.36 1303.13,975.613L1303.13,972.115C1303.13,969.549 1304.53,967.216 1307.33,965.117C1321.33,965.117 1341.68,965.425 1368.38,966.04L1379.23,966.294C1405.94,966.909 1426.29,967.216 1440.28,967.216C1444.25,966.983 1449.79,967.041 1456.9,967.391C1464.02,967.741 1468.74,967.916 1471.07,967.916L1495.56,967.916C1500.7,967.45 1508.86,967.216 1520.06,967.216C1522.52,967.786 1530.85,968.297 1535.42,971.941C1538.86,974.686 1544.06,982.689 1545.05,983.918C1546.62,985.878 1548.05,987.955 1549.41,990.062C1551.1,992.663 1552.69,995.326 1554.23,998.012C1560.82,1009.46 1566.58,1021.35 1571.94,1033.42L1595.65,1089.29Z" style="fill:var(--background);fill-rule:nonzero;"/>
        </g>
        <g transform="matrix(3.12022,0,0,3.12022,-1681.63,-1651.23)">
            <path d="M759.747,794.915L759.747,779.543C760.679,766.501 763.52,754.6 768.271,743.839C773.022,733.079 779.055,724.02 786.368,716.66C793.681,709.3 802.135,703.082 811.731,698.004C821.326,692.927 831.364,689.224 841.845,686.895C852.325,684.566 863.155,683.401 874.335,683.401C880.483,683.401 886.888,683.914 893.549,684.939C900.21,685.963 907.267,687.594 914.72,689.83C922.173,692.065 929.323,695.349 936.17,699.681C943.017,704.013 948.677,709.114 953.149,714.983C962.372,726.255 969.056,738.064 973.201,750.407C977.347,762.751 979.42,776.469 979.42,791.561C979.699,823.049 972.805,848.389 958.738,867.58L952.59,875.965C947.186,883.417 939.454,889.636 929.393,894.62C919.331,899.604 909.27,903.051 899.209,904.961C889.147,906.871 878.993,907.825 868.745,907.825C856.727,907.825 845.641,906.614 835.487,904.192C825.332,901.77 816.575,898.509 809.215,894.41C801.856,890.311 795.288,885.327 789.512,879.458C783.736,873.589 779.008,867.394 775.328,860.873C771.648,854.351 768.621,847.271 766.245,839.632C763.869,831.993 762.193,824.54 761.214,817.273C760.236,810.007 759.747,802.554 759.747,794.915ZM883.854,746.726C880.245,742.997 875.262,740.915 870.073,740.967C864.884,741.019 859.944,743.201 856.41,747.001C846.216,757.965 832.376,772.85 822.525,783.444C815.673,790.814 815.79,802.258 822.792,809.486C832.56,819.569 846.158,833.604 856.421,844.198C860.144,848.041 865.32,850.128 870.667,849.941C876.015,849.754 881.032,847.311 884.478,843.218C894.302,831.548 907.443,815.936 916.633,805.019C922.881,797.597 922.501,786.652 915.753,779.682C906.486,770.107 893.594,756.789 883.854,746.726Z" style="fill:var(--background);fill-rule:nonzero;"/>
        </g>
        <g transform="matrix(1.24623,0,0,1.24623,-280.455,-713.605)">
            <path d="M257.468,1514.84C246.317,1513.39 242.889,1508.07 238.468,1503.22C230.771,1490.86 226.572,1471.27 225.873,1444.44L225.873,1026.46C225.873,996.927 249.271,972.702 278.787,971.677C365.461,968.667 528.163,963.018 528.163,963.018C546.823,963.018 564.317,964.184 580.644,966.517C596.972,968.849 613.474,973.223 630.152,979.637C643.328,984.705 654.976,990.938 665.094,998.335C675.09,1003.43 684.004,1009.35 691.836,1016.1C703.615,1026.24 713.237,1039.71 720.701,1056.51C728.165,1073.3 731.897,1092.66 731.897,1114.59C731.897,1143.74 725.482,1167.36 712.654,1185.44C700.695,1202.29 683.162,1217.37 660.058,1230.67C668.503,1234.54 676.189,1239.06 683.117,1244.23C699.764,1252.52 713.282,1263.48 723.675,1277.1C739.419,1297.75 747.291,1323.81 747.291,1355.3C747.291,1378.62 742.859,1399.56 733.996,1418.1C725.132,1436.65 713.703,1451.75 699.708,1463.41C685.713,1475.07 669.269,1484.75 650.376,1492.45C631.483,1500.15 612.765,1505.57 594.221,1508.72C575.678,1511.87 556.727,1513.44 537.367,1513.44C526.171,1513.44 509.319,1513.21 486.81,1512.74C464.302,1512.28 447.333,1512.04 435.904,1512.04C371.06,1512.04 311.582,1512.98 257.468,1514.84ZM515.228,1289.21C513.224,1288.46 511.448,1287.81 509.902,1287.25C506.986,1286.2 502.613,1285.33 496.782,1284.63C490.95,1283.93 486.752,1283.46 484.186,1283.23C481.62,1282.99 477.189,1282.7 470.891,1282.35C464.593,1282 460.628,1281.83 458.995,1281.83L458.995,1295.12C458.762,1297.69 457.537,1306.32 455.322,1321.01C453.106,1335.71 451.998,1347.37 451.998,1356L451.998,1368.6C451.998,1374.28 452.099,1379.02 452.301,1382.83C459.188,1382.74 465.29,1382.46 470.609,1381.99C477.257,1381.41 484.429,1379.95 492.126,1377.62C499.824,1375.29 506.005,1372.08 510.67,1368C515.335,1363.91 519.3,1358.14 522.565,1350.68C525.831,1343.21 527.464,1334.35 527.464,1324.09C527.464,1318.26 526.881,1312.89 525.714,1307.99C524.548,1303.1 522.682,1298.9 520.116,1295.4C518.463,1293.14 516.834,1291.08 515.228,1289.21ZM506.635,1095.5C495.664,1091.43 481.883,1089.4 465.293,1089.4C455.496,1091.03 449.782,1092.66 448.149,1094.29C446.516,1096.16 445.7,1098.73 445.7,1101.99C445.7,1112.49 446.05,1128.12 446.75,1148.88C447.339,1166.36 447.68,1180.2 447.773,1190.4L448.578,1190.29C454.042,1189.58 459.508,1188.87 464.967,1188.12C467.114,1187.82 469.26,1187.52 471.405,1187.21C473.256,1186.94 475.094,1186.65 476.918,1186.23C481.245,1185.22 485.459,1183.75 489.582,1182.11C493.808,1180.43 497.93,1178.42 501.627,1175.75C503.502,1174.39 505.26,1172.87 506.809,1171.15C510.657,1166.87 513.322,1161.61 515.436,1156.31C518.146,1149.5 519.372,1142.21 519.683,1134.92C519.886,1130.17 519.742,1125.4 519.009,1120.7C517.994,1114.21 515.828,1107.87 512.228,1102.35C510.628,1099.89 508.762,1097.62 506.69,1095.55L506.635,1095.5Z" style="fill:var(--background);fill-rule:nonzero;"/>
        </g>
        <g transform="matrix(3.12022,0,0,3.12022,-1715.67,-1663.43)">
            <path d="M549.856,880.995L549.856,714.302C549.856,702.366 559.312,692.576 571.241,692.161C605.921,690.957 670.592,688.712 670.592,688.712C678.045,688.712 685.032,689.177 691.554,690.109C698.075,691.041 704.666,692.787 711.327,695.349C717.988,697.911 723.671,701.218 728.375,705.271C733.08,709.323 736.923,714.703 739.904,721.411C742.885,728.119 744.376,735.851 744.376,744.608C744.376,756.253 741.814,765.686 736.69,772.906C731.566,780.126 723.88,786.53 713.633,792.12C725.65,795.474 734.803,801.273 741.092,809.518C747.38,817.762 750.524,828.173 750.524,840.75C750.524,850.066 748.754,858.427 745.214,865.833C741.674,873.24 737.109,879.272 731.519,883.93C725.93,888.588 719.362,892.454 711.816,895.528C704.27,898.603 696.794,900.769 689.388,902.026C681.981,903.284 674.412,903.913 666.68,903.913C662.208,903.913 655.477,903.82 646.487,903.633C637.497,903.447 630.72,903.354 626.155,903.354C600.256,903.354 576.5,903.726 554.887,904.472C551.813,899.534 550.136,891.709 549.856,880.995ZM630.067,739.577C630.067,743.77 630.207,750.011 630.487,758.303C630.766,766.594 630.906,772.836 630.906,777.028C630.906,778.798 632.024,779.823 634.26,780.102C635.564,779.916 637.823,779.613 641.037,779.194C644.251,778.775 646.79,778.425 648.653,778.146C650.516,777.866 652.775,777.191 655.43,776.12C658.086,775.048 660.158,773.767 661.649,772.277C663.14,770.786 664.444,768.62 665.562,765.779C666.68,762.937 667.239,759.607 667.239,755.787C667.239,741.627 657.457,734.547 637.893,734.547C633.98,735.199 631.698,735.851 631.046,736.503C630.394,737.248 630.067,738.273 630.067,739.577ZM632.583,846.06C632.583,852.954 632.955,856.401 633.701,856.401L638.172,856.401C641.806,856.401 644.95,856.284 647.605,856.051C650.26,855.819 653.125,855.236 656.199,854.305C659.273,853.373 661.742,852.092 663.605,850.462C665.469,848.832 667.052,846.526 668.357,843.545C669.661,840.564 670.313,837.023 670.313,832.924C670.313,830.595 670.08,828.453 669.614,826.496C669.148,824.54 668.403,822.863 667.378,821.466C666.354,820.068 665.352,818.857 664.374,817.832C663.396,816.808 661.998,815.946 660.182,815.247C658.365,814.548 656.874,813.989 655.71,813.57C654.545,813.151 652.799,812.802 650.47,812.522C648.141,812.243 646.464,812.056 645.439,811.963C644.414,811.87 642.644,811.754 640.129,811.614C637.613,811.474 636.03,811.404 635.378,811.404L635.378,816.714C635.284,817.739 634.795,821.186 633.91,827.055C633.025,832.924 632.583,837.582 632.583,841.029L632.583,846.06Z" style="fill:rgb(7,16,19);fill-rule:nonzero;"/>
        </g>
        <g transform="matrix(3.12022,0,0,3.12022,-1715.67,-1663.43)">
            <path d="M759.747,794.915L759.747,779.543C760.679,766.501 763.52,754.6 768.271,743.839C773.022,733.079 779.055,724.02 786.368,716.66C793.681,709.3 802.135,703.082 811.731,698.004C821.326,692.927 831.364,689.224 841.845,686.895C852.325,684.566 863.155,683.401 874.335,683.401C880.483,683.401 886.888,683.914 893.549,684.939C900.21,685.963 907.267,687.594 914.72,689.83C922.173,692.065 929.323,695.349 936.17,699.681C943.017,704.013 948.677,709.114 953.149,714.983C962.372,726.255 969.056,738.064 973.201,750.407C977.347,762.751 979.42,776.469 979.42,791.561C979.699,823.049 972.805,848.389 958.738,867.58L952.59,875.965C947.186,883.417 939.454,889.636 929.393,894.62C919.331,899.604 909.27,903.051 899.209,904.961C889.147,906.871 878.993,907.825 868.745,907.825C856.727,907.825 845.641,906.614 835.487,904.192C825.332,901.77 816.575,898.509 809.215,894.41C801.856,890.311 795.288,885.327 789.512,879.458C783.736,873.589 779.008,867.394 775.328,860.873C771.648,854.351 768.621,847.271 766.245,839.632C763.869,831.993 762.193,824.54 761.214,817.273C760.236,810.007 759.747,802.554 759.747,794.915ZM883.854,746.726C880.245,742.997 875.262,740.915 870.073,740.967C864.884,741.019 859.944,743.201 856.41,747.001C846.216,757.965 832.376,772.85 822.525,783.444C815.673,790.814 815.79,802.258 822.792,809.486C832.56,819.569 846.158,833.604 856.421,844.198C860.144,848.041 865.32,850.128 870.667,849.941C876.015,849.754 881.032,847.311 884.478,843.218C894.302,831.548 907.443,815.936 916.633,805.019C922.881,797.597 922.501,786.652 915.753,779.682C906.486,770.107 893.594,756.789 883.854,746.726Z" style="fill:rgb(7,16,19);fill-rule:nonzero;"/>
        </g>
        <g transform="matrix(3.12022,0,0,3.12022,-1715.67,-1663.43)">
            <path d="M975.088,900C975.088,897.392 976.765,893.479 980.119,888.262C988.037,876.151 999.356,858.544 1014.08,835.44C1028.8,812.336 1037.41,798.828 1039.93,794.915C1013.66,749.732 993.72,716.008 980.119,693.742L980.119,692.345C980.119,691.32 980.678,690.389 981.796,689.55C987.758,689.55 996.608,689.69 1008.35,689.969C1020.09,690.249 1028.93,690.389 1034.9,690.389C1036.48,690.295 1038.69,690.319 1041.54,690.458C1044.38,690.598 1046.26,690.668 1047.19,690.668L1056.98,690.668C1059.03,690.482 1062.29,690.389 1066.76,690.389C1067.97,690.668 1069.83,692.95 1072.35,697.236C1074.86,701.521 1077.38,706.505 1079.89,712.188L1094.01,745.446C1094.29,744.888 1099.27,734.174 1108.96,713.306L1114.27,702.127C1117.81,694.301 1120.23,690.389 1121.54,690.389C1121.63,690.389 1121.75,690.412 1121.89,690.458C1122.03,690.505 1122.24,690.575 1122.52,690.668C1122.79,690.761 1123.03,690.854 1123.21,690.948C1128.06,690.761 1136.26,690.458 1147.81,690.039C1159.36,689.62 1169.37,689.294 1177.85,689.061C1186.33,688.828 1194.57,688.712 1202.59,688.712C1205.19,689.271 1206.5,691.32 1206.5,694.86L1206.5,696.537C1173.61,748.521 1152.65,781.872 1143.62,796.592L1171.56,839.492C1176.22,846.759 1182.88,857.146 1191.55,870.654C1200.21,884.163 1205.75,892.827 1208.18,896.646L1208.18,899.441C1208.18,902.795 1205.29,904.472 1199.51,904.472C1191.97,904.472 1180.88,904.565 1166.25,904.751C1151.63,904.938 1140.82,905.031 1133.83,905.031L1127.13,905.031C1122.19,905.031 1118.46,904.099 1115.95,902.236L1090.37,848.156C1089.63,849.74 1088.63,852.092 1087.37,855.213C1086.11,858.334 1084.85,861.362 1083.6,864.296C1082.34,867.231 1080.92,870.491 1079.34,874.078C1077.75,877.665 1076.14,880.995 1074.51,884.07C1072.88,887.144 1071.21,890.078 1069.48,892.873C1067.76,895.668 1065.97,898.067 1064.1,900.07C1062.24,902.073 1060.42,903.447 1058.65,904.192C1037.79,903.82 1022.51,903.633 1012.82,903.633C1008.81,903.633 1003.08,903.68 995.63,903.773C988.177,903.866 982.448,903.913 978.442,903.913C976.206,903.074 975.088,901.77 975.088,900Z" style="fill:rgb(7,16,19);fill-rule:nonzero;"/>
        </g>
    </g>
</svg>
