<svg id="visual" viewBox="0 0 900 80" width="900" height="80" xmlns="http://www.w3.org/2000/svg" xmlns:xlink="http://www.w3.org/1999/xlink" version="1.1"><path d="M0 53L21.5 54C43 55 86 57 128.8 54.3C171.7 51.7 214.3 44.3 257.2 41.3C300 38.3 343 39.7 385.8 40.2C428.7 40.7 471.3 40.3 514.2 38.2C557 36 600 32 642.8 30.3C685.7 28.7 728.3 29.3 771.2 31C814 32.7 857 35.3 878.5 36.7L900 38L900 81L878.5 81C857 81 814 81 771.2 81C728.3 81 685.7 81 642.8 81C600 81 557 81 514.2 81C471.3 81 428.7 81 385.8 81C343 81 300 81 257.2 81C214.3 81 171.7 81 128.8 81C86 81 43 81 21.5 81L0 81Z" fill="#071013" stroke-linecap="round" stroke-linejoin="miter"></path></svg>