<svg xmlns="http://www.w3.org/2000/svg" xml:space="preserve" fill-rule="evenodd" stroke-linejoin="round" stroke-miterlimit="2" clip-rule="evenodd" version="1.1" viewBox="0 0 21000 8700"><style>:root{--background: #cc231c}</style><path d="M2370 0h16360v4980H2370" fill="#f5efd5"/><path d="m4740 4040-100-110a1730 1730 0 01-390-790 3090 3090 0 01-90-840v-220c20-250 70-480 170-680s220-360 370-480a2380 2380 0 01 1540-520c280-10 520 30 730 90 190 60 350 140 480 250a1300 1300 0 01 600 600c70 150 120 320 140 520v240c0 60-190 90-570 90a18330 18330 0 01-720-10c-270 30-360-130-400-240l-20-70-10-60-20-100-20-70-130 40c-40 10-60 40-90 70l-40 60-60 130-30 200-10 110v230l-10 100v80l-10 190a1860 1860 0 00 20 290c10 90 40 170 80 250h20l40-10 80-40 30-40c30-30 40-60 50-90l20-60a4050 4050 0 01 30-110l50-140a170 170 0 01 30-30h1410l30 10c90 10 270 30 290 220v50a2280 2280 0 01-160 580 1560 1560 0 01-440 550c-210 170-460 270-720 330a2530 2530 0 01-1600-170l-170-110a1350 1350 0 01-400-290ZM620 2420a900 900 0 01-250-670 1230 1230 0 01 840-1210 2380 2380 0 01 1030-190c480 0 870 90 1160 260l10 10 40 50a1520 1520 0 01 180 90h10a13800 13800 0 01 130 140l120 130 110 150a790 790 0 01 130 420l10 40s-10 60-40 90l-90 30a26980 26980 0 01-1110 10c-50 0-110 10-160-10l-90-30-150-100-60-50-20-20-20-30a640 640 0 00-120 20 1180 1180 0 00-90 30l-20 10c-30 20-60 40-70 70a90 90 0 00 0 50l10 20a3730 3730 0 00 210 60l670 170c270 90 480 190 640 310 130 70 260 160 370 280l100 140c60 100 100 220 120 340a1550 1550 0 01-70 760 1050 1050 0 01-470 550 1530 1530 0 01-500 200 3310 3310 0 01-810 120h-40a6010 6010 0 01-640-70 2280 2280 0 01-470-160l-220-130v-10a1190 1190 0 01-320-220c-90-80-160-190-220-310-70-140-110-310-130-490 0-30 20-50 60-60l50 10a30200 30200 0 00 1300-20l50 10h50l60 30 60 50 60 50 20 20 10 10a380 380 0 01 50 70l20 50 20 40v10h40c80 0 160-30 220-70 70-50 100-120 100-200l-30-90h-10a2950 2950 0 00-430-120l-160-30-60-10h-30a2360 2360 0 01-230-70 2650 2650 0 01-590-290l-40-20a1700 1700 0 01-300-210v-10Zm11860 2180-30-10-30-10-100-80-20 20c-40 30-110 60-240 60a4000 4000 0 01-730-20h-510c-210 0-280-140-280-140l-20-90-30-90a3930 3930 0 01-120-730c0-120-20-210-40-270h-180v1260c0 20-20 30-50 50l-140 20a3160 3160 0 01-490 10h-850c-250 10-300-120-300-170v-10h-10V550c0-50 70-70 210-70h2240c390 10 690 100 890 280h10a930 930 0 01 540 890c0 410-200 710-610 900l40 30 150 80 150 140c50 50 80 110 110 180a1430 1430 0 01 120 410 3270 3270 0 01 50 420l20 200v130a29160 29160 0 01 770-2440 115760 115760 0 00 430-1230h1930l140 30 80 40c40 30 70 70 80 120a80 80 0 01 10 50l1190 3770v20a70 70 0 01-20 30c-10 20-40 30-70 30a380 380 0 01-50 10h-950l-170 10h-140l-100-10h-10a740 740 0 01-80 0c-70-10-140-30-200-70a220 220 0 01-50-60l-30-80c-40-50-10-140-10-190v-10a450 450 0 00-10-50l-60-140h-800l-140 550v10l-30 10a180 180 0 01-60 20l-80 10-120 10h-200l-440 10h-330l-230 10Zm4370-180h-10c-40-120-60-260-60-410V570l10-30 60-20a1370 1370 0 01 210-10h2090c170 0 330 30 480 80 140 50 260 120 370 210a1070 1070 0 01 560 580c70 160 100 350 100 550 0 150-10 290-50 410a1090 1090 0 01-350 560 1270 1270 0 01-540 280 2390 2390 0 01-570 100h-490c-20 270-30 570-30 910v290c0 60-30 90-80 90h-1470c-190 0-230-140-230-140v-10Zm-2350-2700-100 330-200 860 370-20c120-20 170-40 170-80l-240-1090Zm4440-200-110-20a1610 1610 0 00-270-10c-60 20-90 300-90 820l50-10 180-50c70-30 120-60 160-100 50-40 80-100 110-160s40-130 40-210a490 490 0 00-70-260Zm-8390-10-60-10a2160 2160 0 00-230-10h-60c-30 10-40 30-50 70l-10 160a7510 7510 0 00 30 440l40-10c70-20 130-40 190-80 60-30 110-80 140-150 40-70 50-150 50-240a330 330 0 00-40-170Z" fill="#071013" fill-rule="nonzero" stroke="#f5efd5" stroke-width="620"/><path d="M960 2660c-130-60-230-130-310-210a890 890 0 01-270-690 1230 1230 0 01 840-1210 2380 2380 0 01 1030-190c480 0 870 90 1160 260l40 50a1520 1520 0 01 180 90h10a16420 16420 0 01 130 140l120 130 110 150a790 790 0 01 130 420l10 40s-10 60-40 90l-90 30a24880 24880 0 01-1110 10c-50 0-110 10-160-10l-90-30-150-100-70-60-20-40a630 630 0 00-130 20 1150 1150 0 00-90 30l-20 10c-30 20-60 40-70 70a90 90 0 00 0 50l10 30a3690 3690 0 00 220 60l670 170c260 90 460 180 620 300 140 70 270 160 380 280l100 140c60 100 100 220 120 340a1550 1550 0 01-70 760 1050 1050 0 01-470 550 1530 1530 0 01-500 200 3310 3310 0 01-810 120h-40a6450 6450 0 01-640-70 2280 2280 0 01-470-160l-220-130v-10a1080 1080 0 01-530-530c-70-130-110-300-120-480 0-30 10-50 50-60l50 10a30190 30190 0 00 1300-20h90c80 20 190 150 200 160l70 90 10 40 20 40h10l40 10c80 0 160-30 220-70 70-50 100-120 100-200 0-30-10-70-40-100a1800 1800 0 00-150-50l-290-70-160-30-60-10h-30a3750 3750 0 01-410-140c-150-60-290-130-410-220Z" fill="var(--background)" fill-rule="nonzero"/><path d="m5140 4330-140-80a1730 1730 0 01-740-1100 3090 3090 0 01-90-840v-220c20-250 70-480 170-680s220-360 370-480a2380 2380 0 01 1540-520c280-10 520 30 730 90 190 60 340 140 460 230a1340 1340 0 01 600 600c80 160 130 330 150 530v240c0 60-190 90-570 90a18300 18300 0 01-720-10c-380 40-410-280-420-330a2600 2600 0 00-40-210c-50 10-100 10-140 40-40 10-60 40-90 60l-40 70-60 130-30 200-10 110v230l-10 100v80l-10 190a1870 1870 0 00 20 290c10 90 40 180 90 260 60 0 120-30 150-70 40-40 70-90 90-150a4450 4450 0 01 110-300h1400c60 10 300 0 320 220v20a2040 2040 0 01-160 610 1560 1560 0 01-440 550c-210 170-460 270-720 330a2530 2530 0 01-1600-170l-170-110Zm3480 250c-250 10-300-120-300-170V560c0-50 70-70 210-70h2240c390 10 680 100 880 270 90 40 170 90 240 150 210 170 310 420 310 740 0 410-200 710-610 900l40 30 150 80 150 140c50 50 80 110 110 180a1450 1450 0 01 120 410 3180 3180 0 01 50 420l20 200v230c0 30 20 60 40 110l50 110c0 40 0 60-20 60-40 30-110 60-240 60a4000 4000 0 01-730-20h-510c-210 0-280-140-280-140l-40-170a3970 3970 0 01-120-730c0-120-20-220-40-280h-190v1260c0 20-20 30-50 50l-140 20a3150 3150 0 01-490 10h-850Zm1940-3070-70-10a2140 2140 0 00-230-10h-60c-30 10-40 30-50 70l-10 160a7470 7470 0 00 30 450 800 800 0 00 240-90c60-30 110-80 140-150 40-70 50-150 50-240a330 330 0 00-40-180Zm1840 3000a29160 29160 0 01 840-2660 110940 110940 0 00 430-1230h440a28120 28120 0 00 890-10h430a1300 1300 0 01 130 10l60 10 40 30 10 50 1190 3770c0 30-10 60-40 70l-140 20h-240a26120 26120 0 00-1030 0c-60 0-100-10-130-30-30-10-50-30-60-50v-170c-20-90-50-170-90-240s-90-110-140-110h-880l-140 550c-20 40-110 60-290 60h-200a10200 10200 0 00-660 10h-80a5010 5010 0 00-260 10l-80-90Zm1790-1570 70 120h180l370-20c120-20 170-40 170-80l-330-1480c-30 0-70 50-120 170-60 120-100 250-130 400l-210 890Z" fill="var(--background)" fill-rule="nonzero"/><path d="M12180 4370a29160 29160 0 01 830-2660 110940 110940 0 00 430-1230h440a28120 28120 0 00 890-10h440c440-10 450 180 450 190l970 3680c0 30-10 60-40 70l-140 20h-230a26120 26120 0 00-900 10l210 30c-60-10-140 100-170 100-350 20-360-200-370-220v-170c-20-90-50-170-90-240s-90-110-140-110h-880l-140 550c-20 40-110 60-290 60h-200a10200 10200 0 00-660 10h-70c-30 0 20 150-40 150s-200-140-230-140l-70-90Zm1780-1570 80 120h170l370-20c120-20 170-40 170-80l-330-1480c-30 0-70 50-120 170-60 120-100 250-130 400l-210 890Zm3120 1770c-190 0-230-140-230-140-40-120-60-260-60-410V580l10-30 60-20a1390 1390 0 01 210-10h2090c170 0 330 30 480 80 130 50 250 110 360 190 100 50 200 110 280 190 120 100 210 230 280 400 70 160 100 350 100 550 0 150-10 290-50 410a1090 1090 0 01-350 560 1270 1270 0 01-540 280 2390 2390 0 01-570 100h-490c-20 270-30 570-30 910v290c0 60-30 90-80 90h-1470Zm1870-3050-120-20a1610 1610 0 00-270-10c-60 20-90 300-90 830l60-10 180-50c70-30 120-60 160-100 50-40 80-100 110-160s40-130 40-210a490 490 0 00-70-270Z" fill="var(--background)" fill-rule="nonzero"/><path d="m2110 4510-550-50c-160-30-320-70-470-130a1230 1230 0 01-630-570c-70-140-110-310-130-490 0-30 20-50 60-60l50 10a30170 30170 0 00 1300-20c30 0 60 10 80 30s40 50 50 90l50 100c20 30 50 60 90 80s100 40 170 40c80 0 160-30 220-70 70-50 100-120 100-200 0-50-30-100-80-140-60-50-130-80-220-110a3990 3990 0 00-660-150c-420-120-720-260-900-430a890 890 0 01-270-690 1230 1230 0 01 840-1210 2380 2380 0 01 1030-190c480 0 870 90 1160 260a7310 7310 0 01 370 430c40 70 80 150 90 210l40 260-90 90a30660 30660 0 01-1320 10c-30-20-60-30-70-50a1790 1790 0 01-60-120c-10-20-30-30-60-40a330 330 0 00-190-10l-100 20-110 50c-30 20-40 50-40 80 0 40 20 70 60 110l120 60a2920 2920 0 00 280 80l670 170c370 120 640 280 800 470 140 180 210 400 210 670 0 170-20 320-60 450s-100 250-170 340c-60 90-150 170-250 250a1590 1590 0 01-680 280 3760 3760 0 01-730 90Zm5880-1540c-30 260-90 490-200 690s-240 360-410 480a1920 1920 0 01-1260 380c-240 0-450-20-640-80a1510 1510 0 01-840-510 1730 1730 0 01-390-790 3090 3090 0 01-90-840v-220c20-250 70-480 170-680s220-360 370-480a2380 2380 0 01 1540-520c280-10 520 30 730 90a1340 1340 0 01 830 690c80 160 130 330 150 530v240c0 60-190 90-570 90a18260 18260 0 01-760-10c-40 0-80-20-100-50l-50-140-20-160c-20-50-40-100-70-130-40-40-90-60-150-60s-120 10-160 30c-50 20-90 50-110 100l-70 130-40 170a3350 3350 0 00-30 560 2160 2160 0 01-10 250c0 430 120 640 340 660 60 0 120-30 150-70 40-40 70-90 90-150a4440 4440 0 01 110-300h1400c60 10 90 40 90 100Zm4070 1400c-30 30-110 60-240 60a4000 4000 0 01-730-20h-510c-30-10-70-70-90-170a3940 3940 0 01-120-730c0-170-30-290-80-340s-140-80-260-80h-120v1260c0 20-20 30-50 50l-140 20a3170 3170 0 01-490 10h-850l-70-30V550c0-50 70-70 210-70h2240c390 10 690 100 890 280 210 170 310 420 310 740 0 420-210 720-630 910a760 760 0 01 470 420 1400 1400 0 01 120 400 3030 3030 0 01 50 430l20 200v230c0 30 20 60 40 110l50 110c0 40 0 60-20 60ZM9900 1570a7360 7360 0 00 30 430c20 80 40 140 80 170l200-20c70-20 130-40 190-80 60-30 110-80 140-150 40-70 50-150 50-240 0-60 0-100-20-140s-50-80-90-100l-100-60-130-30a2140 2140 0 00-230-10h-60c-20 10-40 30-50 70l-10 160Zm2270 2790a29160 29160 0 01 830-2660 110940 110940 0 00 430-1230h440a28120 28120 0 00 890-10h440a1300 1300 0 01 120 10l60 10 40 30 10 50 1190 3770c0 30-10 60-40 70l-140 20h-230a26120 26120 0 00-1040 0c-60 0-100-10-130-30-30-10-50-30-60-50v-170c-20-90-50-170-90-240s-90-110-140-110h-880l-140 550c-20 40-110 60-290 60h-200a10200 10200 0 00-660 10h-70a5010 5010 0 00-270 10l-70-90Zm1780-1570 80 120h170l370-20c120-20 170-40 170-80l-330-1480c-30 0-70 50-120 170-60 120-100 250-130 400l-210 890Zm2830 1220V570l10-30 60-20a1360 1360 0 01 210-10h2090c170 0 330 30 480 80 160 60 290 140 410 240s210 230 280 400a1530 1530 0 01 50 970 1090 1090 0 01-350 560 1270 1270 0 01-540 270 2390 2390 0 01-570 100h-490c-20 270-20 570-20 910v280c-10 70-40 100-90 100h-1470c-40-120-60-260-60-410Zm1450-1810 80 120 210-20 180-50c70-30 120-60 160-100 50-40 90-100 110-160 30-60 40-130 40-210a490 490 0 00-80-280c-20-30-60-50-100-80a630 630 0 00-240-70 1610 1610 0 00-270-10c-60 20-90 310-90 860Z" fill="#071013" fill-rule="nonzero"/><path d="m14000 5770 190-430 90-180c60-130 90-160 110-170 80-30 250-20 440-30a56530 56530 0 01 890-20c40 10 90 0 160 80 20 20 30 60 30 90v40l-50 70-100 160a71820 71820 0 00-680 1080l-150 240-30 50-20 30 460 700 60 100 80 110 230 370 160 240 50 80 10 20 10 10v40l-10 30v10l-70 40a250 250 0 01-60 10h-980l-100 10h-110l-100-20c-30 0-150-30-200-110l-340-700a8610 8610 0 01-340 690 660 660 0 01-100 100 200 200 0 01-30 20h-180a44680 44680 0 00-640-10l-350 10h-140c-180 0-170-50-180-80v-60c0-50 30-110 80-190a91970 91970 0 00 980-1530l-980-1650v-20l30-40h470a18670 18670 0 00 600 10h320c10 0 70 10 100 30l60 80 30 40 30 50 110 230 160 370Z" fill="var(--background)" fill-rule="nonzero"/><path d="M8670 6730v-250c20-210 70-400 140-580a1450 1450 0 01 710-750c160-80 320-140 490-180a2430 2430 0 01 1190 50c120 40 240 90 350 160s200 150 280 250a1830 1830 0 01 420 1250c10 510-100 920-330 1240l-100 130c-90 130-220 230-380 310s-330 140-490 170a2660 2660 0 01-1040-20 1410 1410 0 01-980-710 2230 2230 0 01-250-1080Zm2030-780a310 310 0 00-450 0l-550 600a310 310 0 00 0 420l550 570a310 310 0 00 460-20l520-620c100-120 100-300-10-420l-520-530ZM5290 8540c-80-10-100-50-130-80-50-80-80-210-80-380V5360c0-200 150-350 340-360l1630-60a1870 1870 0 01 890 230c60 40 120 70 170 120 80 60 140 150 190 260s70 240 70 380c0 190-40 340-120 460-80 110-190 210-340 300l150 80c100 60 190 130 260 220 100 130 150 300 150 510a860 860 0 01-310 700c-90 80-190 140-320 190a1740 1740 0 01-730 140 17210 17210 0 01-660-10c-430 0-810 0-1160 20Zm1670-1470a3460 3460 0 00-120-30 3150 3150 0 00-240-20v90a5000 5000 0 01-50 390v180l120-10c50 0 90-10 140-30 50-10 90-30 120-60s60-60 80-110 30-110 30-180l-10-100-30-80-40-40Zm-50-1260c-70-30-160-40-270-40l-110 30-20 50a9880 9880 0 00 10 570h10l110-10a9010 9010 0 00 160-40l70-40 40-30 50-100a470 470 0 00 20-230 300 300 0 00-70-160Z" fill="var(--background)" fill-rule="nonzero"/><path d="M5070 8070V5350c0-190 160-350 350-360l1620-50 340 20c110 20 220 40 330 90a810 810 0 01 540 800c0 190-50 340-130 460s-210 220-380 310c200 60 350 150 450 290 100 130 160 300 160 510 0 150-30 280-90 400-60 130-130 220-220 300a1740 1740 0 01-1060 330 17320 17320 0 01-660-10l-1160 10c-50-80-80-200-90-380Zm1310-2300a9870 9870 0 00 20 610c0 30 10 40 50 50a10690 10690 0 01 350-70c40-10 70-40 100-60l60-110c20-40 30-100 30-160 0-230-160-350-480-350l-110 40-20 50Zm40 1730c0 120 10 170 20 170h230l140-30a310 310 0 00 200-180c20-50 30-100 30-170l-10-110-40-80-50-60-70-40a3720 3720 0 00-160-40 3280 3280 0 00-240-20v80a5070 5070 0 01-50 400v80Zm2080-830v-250c10-210 60-410 130-580a1450 1450 0 01 710-750c160-80 320-140 490-180a2430 2430 0 01 1190 50c120 30 240 90 350 160s210 150 280 250a1830 1830 0 01 430 1240c0 520-110 930-340 1240l-100 140c-90 120-210 220-380 300-160 90-330 140-490 170a2660 2660 0 01-1040-10 1410 1410 0 01-980-710 2230 2230 0 01-250-1080Zm2020-790a310 310 0 00-450 10l-550 590a310 310 0 00 0 430l550 560a310 310 0 00 460-10l520-630c110-120 100-300-10-410l-520-540Z" fill="#071013" fill-rule="nonzero"/><path d="M12010 8380c0-40 20-100 80-190a95010 95010 0 00 970-1520l-970-1650v-20c0-20 10-40 30-50a19870 19870 0 01 1060 20h160l160-10 90 120 120 240 230 540 250-520 90-180c50-130 90-200 110-200l10 10a3680 3680 0 00 20 0 202770 202770 0 01 1290-30c50 10 70 40 70 100v30l-1030 1630 460 700 320 500 280 430v40c0 60-50 80-150 80a46300 46300 0 00-1070 10h-110c-80 0-140-10-180-40l-410-880a2540 2540 0 00-110 260 18660 18660 0 01-240 470l-80 110c-30 40-60 60-90 70a46800 46800 0 00-1310 0c-40-20-50-40-50-70Z" fill="#071013" fill-rule="nonzero"/></svg>