<?xml version="1.0" encoding="UTF-8" standalone="no"?>
<!DOCTYPE svg PUBLIC "-//W3C//DTD SVG 1.1//EN" "http://www.w3.org/Graphics/SVG/1.1/DTD/svg11.dtd">
<svg width="100%" height="100%" viewBox="0 0 3000 1725" version="1.1" xmlns="http://www.w3.org/2000/svg" xmlns:xlink="http://www.w3.org/1999/xlink" xml:space="preserve" xmlns:serif="http://www.serif.com/" style="fill-rule:evenodd;clip-rule:evenodd;stroke-linejoin:round;stroke-miterlimit:2;">
    <g transform="matrix(0.999168,0,0,1.01406,0.242827,-0.309375)">
        <path d="M2699,40.737L2481.06,24.958L292,22L292,662L820.709,710.32L1501.01,716.173L1951.74,734.321L2538.66,720.562L2697,662L2703.03,473.137L2792.49,206.6L2699,40.737Z" style="fill:rgb(245,239,213);"/>
        <g transform="matrix(1,0,0,1.39361,-41.239,664.416)">
            <path d="M2699,40.737L2481.06,24.958L292,22L292,662L667.57,723.003L909.58,688.349L1008.99,592.096L1075.59,601.447L1454.4,734.321L1739.71,715.215L1895.37,625.973L1940.4,646.608L1957.75,725.83L2164.07,726L2356.97,722.268L2395.72,703.979L2448.22,646.999L2481.58,613.371L2531.04,695.213L2587.53,722.171L2744.58,726.796L2703.03,473.137L2792.49,206.6L2699,40.737Z" style="fill:rgb(245,239,213);"/>
        </g>
    </g>
    <g transform="matrix(0.980088,0,0,0.980088,48.5,28.8137)">
        <g>
            <path d="M264,184L226,222L364,262L512,347L525,516L363,631L162,632L36,558L0,457L95,448L218,456L251,498L319,473L278,420L52,347L5,223L52,111L195,39L337,35L457,74L518,165L512,208L389,223L314,213L264,184Z"/>
            <path d="M73.439,403.069L-4.411,410.444L-44.05,472.701L-2.342,589.715L149.391,678.828L378.015,677.69L573.657,538.809L556.73,318.761L457.48,261.76L553.348,250.069L566.782,153.786L486.838,34.525L343.765,-11.974L183.272,-7.453L15.556,76.992L-45.345,222.118L16.238,384.592L73.439,403.069ZM264,184L226,222L364,262L512,347L525,516L363,631L162,632L36,558L0,457L95,448L218,456L251,498L319,473L278,420L52,347L5,223L52,111L195,39L337,35L457,74L518,165L512,208L389,223L314,213L264,184Z" style="fill:rgb(245,239,213);"/>
            <path d="M1016,289L915,270L879,202L826,218L802,333.5L828,466L882,471L907,409L1013,409L1128,402L1084,546L959,632L776,642L622,553L565,405L571,231L653,106L773,48L940,44L1061,94L1120,212L1120,259L1016,289Z"/>
            <path d="M861.887,395.83L849.708,333.765L862.712,271.183L884.212,311.793L1018.28,337.014L1166.77,294.182L1166.77,200.96L1095.01,57.455L948.742,-2.987L761.762,1.491L620.997,69.528L524.715,216.3L517.935,412.913L584.297,585.223L764.652,689.454L974.677,677.978L1123.95,575.275L1172.72,415.665L1125.16,355.322L1011.58,362.235L875.434,362.235L861.887,395.83ZM1016,289L915,270L879,202L826,218L802,333.5L828,466L882,471L907,409L1013,409L1128,402L1084,546L959,632L776,642L622,553L565,405L571,231L653,106L773,48L940,44L1061,94L1120,212L1120,259L1016,289Z" style="fill:rgb(245,239,213);"/>
            <path d="M1390,632L1412,601L1410,431L1467,449L1486,540L1510,616L1609,632L1725,618L1712,482L1678,371L1624,333.5L1701,266L1710,153L1636,72L1490,53L1344,53L1182,58L1179,191L1184,361L1175,504L1180,621L1289,636L1390,632ZM1418,182L1411,250L1432,302L1500,279L1512,211L1468,182L1418,182Z"/>
            <path d="M1458.87,609.373L1474.09,657.567L1608.05,679.218L1775.89,658.962L1758.1,472.834L1717.97,341.824L1699.82,329.22L1746.11,288.646L1758.23,136.459L1658.99,27.833L1493.03,6.235L1343.28,6.235C1342.56,6.258 1136.25,12.625 1136.25,12.625L1132.22,191.16L1137.19,360.217L1128.17,503.528L1134.94,662.005L1286.72,682.891L1414.83,677.818L1458.94,615.66L1458.87,609.373ZM1390,632L1412,601L1410,431L1467,449L1486,540L1510,616L1609,632L1725,618L1712,482L1678,371L1624,333.5L1701,266L1710,153L1636,72L1490,53L1344,53L1182,58L1179,191L1184,361L1175,504L1180,621L1289,636L1390,632ZM1418,182L1411,250L1432,302L1500,279L1512,211L1468,182L1418,182ZM1458.71,243.247L1458.79,243.446L1460.61,233.135L1459.8,232.605L1458.71,243.247Z" style="fill:rgb(245,239,213);"/>
            <path d="M1858,642L1972,632L1993,543L2075,537L2147,548L2164,616L2266,632L2396,618L2352,447L2300,307L2266,181L2222,59L2104,44L1935,53L1890,167L1855,287L1797,444L1754,598L1760,636L1858,642ZM2010,382L2037,411L2111,404L2120,361L2095,240L2075,175L2042,250L2010,382Z"/>
            <path d="M1719.66,680.383L1858.62,688.89L2009.75,675.632L2030.63,587.136L2073.15,584.025L2109.18,589.529L2126.15,657.398L2264.86,679.158L2401.01,664.496L2441.29,606.347L2396.68,432.994L2344.59,292.737L2310.65,166.952L2256.28,16.217L2105.72,-2.922L1902.53,7.899L1845.71,151.836L1810.57,272.332L1752.47,429.585L1706.22,595.233L1719.66,680.383ZM1858,642L1972,632L1993,543L2075,537L2147,548L2164,616L2266,632L2396,618L2352,447L2300,307L2266,181L2222,59L2104,44L1935,53L1890,167L1855,287L1797,444L1754,598L1760,636L1858,642ZM2010,382L2037,411L2111,404L2120,361L2095,240L2075,175L2042,250L2010,382ZM2063.07,361.56L2072.18,360.698L2068.09,340.873L2063.07,361.56Z" style="fill:rgb(245,239,213);"/>
            <path d="M2425,67L2418,190L2430,333.5L2425,467L2430,608L2451,632L2546,636L2654,632L2666,528L2664,443L2788,435L2882,407L2948,333.5L2963,221L2932,124L2855,71L2755,53L2649,60L2540,57L2463,57L2425,67ZM2664,178L2646,206L2641,291L2658,321L2720,308L2757,243L2727,187L2664,178Z"/>
            <path d="M2456.95,10.235L2380.24,30.422L2371.12,190.623L2383.16,334.577L2378.2,466.953L2383.85,626.278L2429.01,677.88L2545.88,682.801L2695.85,677.246L2712.83,530.14L2711.81,486.777L2796.28,481.327L2907.99,448.055L2992.45,353.998L3010.74,216.769L2971.68,94.54L2873.21,26.761L2757.64,5.959L2648.1,13.193L2540.64,10.235L2456.95,10.235ZM2425,67L2418,190L2430,333.5L2425,467L2430,608L2451,632L2546,636L2654,632L2666,528L2664,443L2788,435L2882,407L2948,333.5L2963,221L2932,124L2855,71L2755,53L2649,60L2540,57L2463,57L2425,67ZM2664,178L2646,206L2641,291L2658,321L2720,308L2757,243L2727,187L2664,178ZM2691.48,229.165L2696.95,229.947L2703.58,242.314L2689.78,266.555L2689.28,266.66L2691.48,229.165Z" style="fill:rgb(245,239,213);"/>
        </g>
        <g transform="matrix(1,0,0,1,18.5,-4.93833)">
            <path d="M0,1428L10,1613L72,1653L342,1645L565,1658L767,1595L879,1463L879,1284L792,1183L719,1157L838,1062L868,934L805,787L658,705L468,708L279,702L98,713L19,737L0,899L8,1092L9,1294L0,1428ZM381,1283L367,1405L401,1447L496,1429L539,1356L510,1272L413,1246L381,1283ZM360,933L357,1060L379,1102L456,1089L517,1038L514,951L469,914L394,904L360,933Z"/>
            <path d="M813.831,1141.13L879.835,1088.44L917.038,929.706L841.704,753.926L669.816,658.043L468.373,661.224L278.322,655.19L89.671,666.655L-23.881,701.152L-46.878,897.234L-38.76,1093.08C-38.76,1093.09 -37.772,1292.55 -37.772,1292.55L-46.849,1427.69L-35.408,1639.36L58.859,1700.17L341.33,1691.81L570.787,1705.18L793.879,1635.6L925.765,1480.17L925.765,1266.64L819.352,1143.1L813.831,1141.13ZM0,1428L10,1613L72,1653L342,1645L565,1658L767,1595L879,1463L879,1284L792,1183L719,1157L838,1062L868,934L805,787L658,705L468,708L279,702L98,713L19,737L0,899L8,1092L9,1294L0,1428ZM381,1283L367,1405L401,1447L496,1429L539,1356L510,1272L413,1246L381,1283ZM425.814,1302.67L429.2,1298.76L473.901,1310.74L487.753,1350.86L466.466,1387L419.759,1395.85L415.697,1390.83L425.814,1302.67ZM360,933L357,1060L379,1102L456,1089L517,1038L514,951L469,914L394,904L360,933ZM406.258,955.01L408.485,953.11L449.601,958.592L467.991,973.713L469.476,1016.78L435.723,1045L404.678,1050.24L404.037,1049.01L406.258,955.01Z" style="fill:rgb(245,239,213);"/>
            <path d="M1422,681L1197,728L1025,862.5L949,1038L942,1254L1014,1465L1148,1622L1375,1674L1627,1639L1830,1485L1902,1302L1915,1125L1867,920L1658,720L1422,681ZM1216,1126L1369,947L1465,926L1584,1035L1663,1151L1578,1298L1483,1396L1400,1419L1297,1329L1192,1212L1216,1126Z"/>
            <path d="M1679.89,676.218L1421,633.436L1176.77,684.451L986.817,832.994L902.548,1027.59L894.983,1261.02L972.628,1488.56L1122.48,1664.13L1372.93,1721.5L1645.53,1683.64L1868.72,1514.33L1948.12,1312.51L1962.16,1121.3L1909.37,895.816L1679.89,676.218ZM1422,681L1197,728L1025,862.5L949,1038L942,1254L1014,1465L1148,1622L1375,1674L1627,1639L1830,1485L1902,1302L1915,1125L1867,920L1658,720L1422,681ZM1216,1126L1369,947L1465,926L1584,1035L1663,1151L1578,1298L1483,1396L1400,1419L1297,1329L1192,1212L1216,1126ZM1258.27,1148.53C1258.27,1148.53 1361.13,1028.18 1394.34,989.327L1451.3,976.867L1548.41,1065.82L1607.81,1153.03L1540.4,1269.6L1458.27,1354.33L1411.8,1367.2L1329.91,1295.65L1243.94,1199.86L1258.27,1148.53Z" style="fill:rgb(245,239,213);"/>
            <path d="M1922,735L2051,931L2158,1117L2167,1204L2055,1387L1915,1590L1927,1658L2086,1663L2269,1658L2351,1547L2407,1407L2502,1613L2548,1658L2740,1666L2915,1658L2909,1584L2806,1418L2670,1231L2678,1123L2797,949L2876,805L2926,742L2893,702L2754,696L2660,710L2550,710L2485,813L2428,951L2362,794L2309,714L2187,702L2075,709L1957,702L1922,735Z"/>
            <path d="M1939.61,654.122L1861.35,727.911L2011.16,955.537C2019.12,969.371 2092.6,1097.09 2112.51,1131.7L2118.86,1193.08L2015.78,1361.5L1865.61,1579.24L1887.55,1703.55L2085.9,1709.79L2293.07,1704.12L2392.19,1569.95L2410.05,1525.29L2463.14,1640.41L2528.12,1703.98L2740.1,1712.81L2965.53,1702.5L2954.7,1568.95L2844.83,1391.88L2717.9,1217.36L2723.71,1139.01L2836.9,973.505L2915.09,830.967L2986.16,741.43L2915.82,656.177L2751.54,649.086L2656.54,663.235L2524.21,663.235L2443.31,791.437L2427.62,829.423L2403.41,771.831L2335.7,669.637L2187.84,655.092L2074.93,662.149L1939.61,654.122ZM1922,735L2051,931L2158,1117L2167,1204L2055,1387L1915,1590L1927,1658L2086,1663L2269,1658L2351,1547L2407,1407L2502,1613L2548,1658L2740,1666L2915,1658L2909,1584L2806,1418L2670,1231L2678,1123L2797,949L2876,805L2926,742L2893,702L2754,696L2660,710L2550,710L2485,813L2428,951L2362,794L2309,714L2187,702L2075,709L1957,702L1922,735Z" style="fill:rgb(245,239,213);"/>
        </g>
    </g>
</svg>
