<?xml version="1.0" encoding="UTF-8" standalone="no"?>
<!DOCTYPE svg PUBLIC "-//W3C//DTD SVG 1.1//EN" "http://www.w3.org/Graphics/SVG/1.1/DTD/svg11.dtd">
<svg width="100%" height="100%" viewBox="0 0 2100 2100" version="1.1" xmlns="http://www.w3.org/2000/svg" xmlns:xlink="http://www.w3.org/1999/xlink" xml:space="preserve" xmlns:serif="http://www.serif.com/" style="fill-rule:evenodd;clip-rule:evenodd;stroke-linecap:round;stroke-linejoin:round;stroke-miterlimit:1.5;">
    <rect x="0" y="0" width="2100" height="2100" style="fill:white;"/>
    <g transform="matrix(-1.5,0,0,1.5,2494.85,-171.347)">
        <circle cx="675" cy="675" r="75"/>
    </g>
    <g transform="matrix(1,0,0,1,39.9768,215)">
        <path d="M750,1050L799.984,1050C966.01,1050 1131.38,1029.24 1292.25,988.187C1322.98,980.348 1343.94,975 1343.94,975" style="fill:none;stroke:black;stroke-width:125px;"/>
    </g>
    <g transform="matrix(-1.5,0,0,1.5,1704.04,-171.347)">
        <circle cx="675" cy="675" r="75"/>
    </g>
    <g>
        <g transform="matrix(-1.03899,0.0454156,0.0454156,1.03899,2085.06,-154.906)">
            <path d="M0,1826.47C-158.676,1826.47 -287.5,1697.65 -287.5,1538.97C-287.5,1446.97 -244.193,1365.01 -176.885,1312.38C-209.92,1285.22 -231,1244.05 -231,1198C-231,1116.32 -164.683,1050 -83,1050C-1.317,1050 65,1116.32 65,1198C65,1218.72 60.732,1238.46 53.03,1256.36C163.943,1277.09 252.518,1361.56 279.218,1470.24C297.811,1464.54 317.55,1461.47 338,1461.47C383.558,1461.47 425.588,1476.7 459.27,1502.34C491.48,1378.78 603.911,1287.47 737.5,1287.47C861.727,1287.47 967.657,1366.43 1007.8,1476.85C1035.49,1460.72 1067.67,1451.47 1102,1451.47C1165.37,1451.47 1221.45,1482.98 1255.39,1531.17C1301.3,1482.13 1366.6,1451.47 1439,1451.47C1506.63,1451.47 1568.06,1478.22 1613.26,1521.7C1612.76,1513.85 1612.5,1505.94 1612.5,1497.97C1612.5,1296.8 1775.83,1133.47 1977,1133.47C1978.03,1133.47 1979.05,1133.48 1980.05,1133.49C1978.05,1123.8 1977,1113.76 1977,1103.47C1977,1021.79 2043.32,955.472 2125,955.472C2206.68,955.472 2273,1021.79 2273,1103.47C2273,1151.6 2249.98,1194.39 2214.36,1221.43C2292.18,1288.31 2341.5,1387.43 2341.5,1497.97C2341.5,1655.99 2240.73,1790.66 2100,1841.16L2100,2170L0,2170L0,1826.47Z" style="fill:rgb(93,203,145);"/>
        </g>
        <path d="M877.134,-0.438C919.809,-51.785 984.145,-84.5 1056.06,-84.5C1127.98,-84.5 1192.32,-51.785 1234.99,-0.438L2184.25,-0.438L2184.25,267.648C2315.21,276.053 2419,385.096 2419,518.188C2419,656.753 2306.5,769.25 2167.94,769.25C2029.37,769.25 1916.88,656.753 1916.88,518.188C1916.88,515.056 1916.93,511.938 1917.05,508.823C1895.38,514.925 1872.54,518.188 1848.94,518.188C1770.77,518.188 1700.9,482.39 1654.85,426.31C1635.99,479.806 1584.97,518.188 1525.06,518.188C1460.48,518.188 1406.22,473.579 1391.46,413.518C1370.11,422.598 1346.61,427.625 1321.94,427.625C1260.28,427.625 1205.9,396.218 1173.93,348.542C1139.35,368.93 1099.06,380.625 1056.06,380.625C1001.65,380.625 951.582,361.9 911.961,330.557C912.4,335.333 912.625,340.172 912.625,345.062C912.625,431.472 842.472,501.625 756.063,501.625C723.037,501.625 692.386,491.377 667.118,473.89C640.782,569.049 553.495,639 450,639C377.845,639 313.569,605 272.33,552.158C254.524,584.253 220.282,606 181,606C179.992,606 178.987,605.986 177.985,605.957C179.964,616.663 181,627.712 181,639C181,738.897 99.897,820 0,820C-99.897,820 -181,738.897 -181,639C-181,539.103 -99.897,458 0,458L0,0L509,0L509,-0.438L877.134,-0.438Z" style="fill:rgb(93,203,145);"/>
    </g>
</svg>
