<?xml version="1.0" encoding="UTF-8" standalone="no"?>
<!DOCTYPE svg PUBLIC "-//W3C//DTD SVG 1.1//EN" "http://www.w3.org/Graphics/SVG/1.1/DTD/svg11.dtd">
<svg width="100%" height="100%" viewBox="0 0 2100 2100" version="1.1" xmlns="http://www.w3.org/2000/svg" xmlns:xlink="http://www.w3.org/1999/xlink" xml:space="preserve" xmlns:serif="http://www.serif.com/" style="fill-rule:evenodd;clip-rule:evenodd;stroke-linecap:round;stroke-linejoin:round;stroke-miterlimit:1.5;">
    <rect x="0" y="0" width="2100" height="2100" style="fill:white;"/>
    <g transform="matrix(1,0,0,1,0,-15.1943)">
        <g>
            <g>
                <g transform="matrix(0.707107,-0.707107,0.707107,0.707107,382.492,1392.77)">
                    <path d="M1406.46,263.078C1408.35,249.022 1403.58,234.889 1393.55,224.862C1383.52,214.834 1369.38,210.06 1355.33,211.952C1315.75,217.279 1261.28,224.612 1207.73,231.819C1096.91,246.736 1009.74,333.908 994.819,444.733C987.612,498.275 980.279,552.753 974.952,592.326C973.06,606.381 977.834,620.515 987.862,630.545C997.889,640.575 1012.02,645.352 1026.08,643.463C1065.65,638.145 1120.12,630.824 1173.66,623.629C1284.52,608.73 1371.73,521.523 1386.63,410.656C1393.82,357.117 1401.14,302.647 1406.46,263.078Z" style="fill:rgb(223,105,105);"/>
                </g>
                <path d="M1499.92,744.012C1450.84,756.115 1414.4,800.461 1414.4,853.25C1414.4,906.039 1450.84,950.385 1499.92,962.488C1504.78,971.01 1510.24,979.28 1516.31,987.241C1518.83,990.541 1522.74,992.478 1526.89,992.478C1531.04,992.479 1534.95,990.543 1537.47,987.243C1537.48,987.234 1537.48,987.225 1537.49,987.216C1543.56,979.265 1549.01,971.005 1553.86,962.492C1602.96,950.396 1639.4,906.046 1639.4,853.25C1639.4,800.454 1602.96,756.104 1553.86,744.008C1549.01,735.495 1543.56,727.235 1537.49,719.284C1537.48,719.275 1537.48,719.266 1537.47,719.257C1534.95,715.957 1531.04,714.021 1526.89,714.022C1522.74,714.022 1518.83,715.959 1516.31,719.259C1510.24,727.22 1504.78,735.49 1499.92,744.012Z"/>
            </g>
            <g>
                <g transform="matrix(0.707107,-0.707107,0.707107,0.707107,-571.313,1392.77)">
                    <path d="M1406.46,263.078C1408.35,249.022 1403.58,234.889 1393.55,224.862C1383.52,214.834 1369.38,210.06 1355.33,211.952C1315.75,217.279 1261.28,224.612 1207.73,231.819C1096.91,246.736 1009.74,333.908 994.819,444.733C987.612,498.275 980.279,552.753 974.952,592.326C973.06,606.381 977.834,620.515 987.862,630.545C997.889,640.575 1012.02,645.352 1026.08,643.463C1065.65,638.145 1120.12,630.824 1173.66,623.629C1284.52,608.73 1371.73,521.523 1386.63,410.656C1393.82,357.117 1401.14,302.647 1406.46,263.078Z" style="fill:rgb(223,105,105);"/>
                </g>
                <path d="M546.118,744.012C497.036,756.115 460.598,800.461 460.598,853.25C460.598,906.039 497.036,950.385 546.118,962.488C550.97,971.01 556.431,979.28 562.503,987.241C565.02,990.541 568.933,992.478 573.083,992.478C577.234,992.479 581.147,990.543 583.664,987.243C583.671,987.234 583.678,987.225 583.686,987.216C589.752,979.265 595.209,971.005 600.06,962.492C649.151,950.396 685.598,906.046 685.598,853.25C685.598,800.454 649.151,756.104 600.06,744.008C595.209,735.495 589.752,727.235 583.686,719.284C583.678,719.275 583.671,719.266 583.664,719.257C581.147,715.957 577.234,714.021 573.083,714.022C568.933,714.022 565.02,715.959 562.503,719.259C556.431,727.22 550.97,735.49 546.118,744.012Z"/>
            </g>
        </g>
        <g transform="matrix(-1.5,0,0,1.5,2062.5,65.75)">
            <circle cx="675" cy="675" r="75" style="fill:rgb(223,105,105);"/>
        </g>
        <g transform="matrix(1,0,0,1,0,15.1943)">
            <path d="M-198.67,316.358C-207.182,338.464 -211.848,362.469 -211.848,387.556C-211.848,439.283 -192.009,486.414 -159.531,521.747C-183.954,554.725 -198.399,595.517 -198.399,639.656C-198.399,749.156 -109.5,838.056 0,838.056C109.5,838.056 198.399,749.156 198.399,639.656C198.399,623.691 196.51,608.164 192.939,593.275C200.247,594.178 207.69,594.642 215.241,594.642C314.862,594.642 395.741,513.763 395.741,414.142C395.741,411.223 395.672,408.321 395.535,405.431C406.759,408.766 418.641,410.556 430.938,410.556C468.604,410.556 502.379,393.761 525.172,367.261C557.771,412.094 610.623,441.257 670.233,441.257C725.935,441.257 775.737,415.792 808.623,375.875C848.462,415.654 903.446,440.264 964.132,440.264C980.497,440.264 996.448,438.474 1011.81,435.077C1022.03,509.144 1085.65,566.26 1162.5,566.26C1231.92,566.26 1290.55,519.654 1308.77,456.038C1337.08,476.102 1371.65,487.896 1408.96,487.896C1464.44,487.896 1513.87,461.813 1545.66,421.247C1559.68,462.337 1598.64,491.924 1644.46,491.924C1666.75,491.924 1687.42,484.92 1704.38,472.994C1707.83,564.127 1782.9,637.059 1874.88,637.059C1875.12,637.059 1875.35,637.058 1875.58,637.057C1875.12,643.204 1874.88,649.413 1874.88,655.677C1874.88,790.963 1984.72,900.798 2120,900.798C2255.29,900.798 2365.12,790.963 2365.12,655.677C2365.12,596.787 2344.31,542.719 2309.65,500.439C2332.15,463.398 2345.12,419.919 2345.12,373.434C2345.12,287.122 2300.41,211.169 2232.9,167.48C2237.55,155.702 2239.96,143.659 2239.96,131.417C2239.96,-9.95 1918.85,-124.722 1523.34,-124.722C1299.24,-124.722 1099.03,-87.876 967.561,-30.216C906.665,-142.604 611.665,-196.221 269.97,-150.635C-103.06,-100.868 -391.388,48.407 -373.498,182.505C-365.676,241.133 -300.61,287.215 -198.67,316.358Z" style="fill:rgb(223,105,105);"/>
        </g>
        <g transform="matrix(1,0,0,1,1,0)">
            <g transform="matrix(-1,0,0,2,2110.6,-1084.53)">
                <path d="M450,1200C609.13,1279.57 824.956,1324.26 1050,1324.26C1275.04,1324.26 1490.87,1279.57 1650,1200" style="fill:none;stroke:rgb(223,105,105);stroke-width:184.47px;"/>
            </g>
            <g transform="matrix(-1,0,0,2,2110.6,-1084.53)">
                <path d="M450,1200C609.13,1279.57 824.956,1324.26 1050,1324.26C1275.04,1324.26 1490.87,1279.57 1650,1200" style="fill:none;stroke:black;stroke-width:89.6px;"/>
            </g>
        </g>
    </g>
</svg>
