<?xml version="1.0" encoding="UTF-8" standalone="no"?>
<!DOCTYPE svg PUBLIC "-//W3C//DTD SVG 1.1//EN" "http://www.w3.org/Graphics/SVG/1.1/DTD/svg11.dtd">
<svg width="100%" height="100%" viewBox="0 0 2100 2100" version="1.1" xmlns="http://www.w3.org/2000/svg" xmlns:xlink="http://www.w3.org/1999/xlink" xml:space="preserve" xmlns:serif="http://www.serif.com/" style="fill-rule:evenodd;clip-rule:evenodd;stroke-linecap:round;stroke-linejoin:round;stroke-miterlimit:1.5;">
    <rect x="0" y="0" width="2100" height="2100" style="fill:white;"/>
    <g transform="matrix(-1.5,0,0,1.5,2539.4,-159.25)">
        <circle cx="675" cy="675" r="75"/>
    </g>
    <g transform="matrix(-1,0,0,-1,2365.84,2393.25)">
        <path d="M1343.94,1115C1343.94,1115 1343.93,1115 1343.93,1115C1311.53,1107.83 1288.28,1079.36 1287.75,1046.17C1287.21,1012.99 1309.53,983.779 1341.69,975.574C1343.16,975.198 1343.94,975 1343.94,975" style="fill:none;stroke:black;stroke-width:125px;"/>
    </g>
    <g transform="matrix(-1.5,0,0,1.5,1585.6,-159.25)">
        <circle cx="675" cy="675" r="75"/>
    </g>
    <path d="M2100,0L0,0L0,2100L2100,2100L2100,0ZM1449.69,1256.33C1449.69,1215.97 1416.98,1183.25 1376.62,1183.25L723.383,1183.25C683.023,1183.25 650.306,1215.97 650.306,1256.33L650.306,1447.17C650.306,1487.53 683.023,1520.25 723.383,1520.25L1376.62,1520.25C1416.98,1520.25 1449.69,1487.53 1449.69,1447.17L1449.69,1256.33ZM1759.4,756.05C1759.4,737.14 1751.89,719.004 1738.52,705.633C1725.14,692.262 1707.01,684.75 1688.1,684.75C1461.35,684.75 638.552,684.75 411.8,684.75C392.89,684.75 374.754,692.262 361.383,705.633C348.012,719.004 340.5,737.14 340.5,756.05C340.5,813.273 340.5,893.227 340.5,950.45C340.5,969.36 348.012,987.496 361.383,1000.87C374.754,1014.24 392.89,1021.75 411.8,1021.75C638.552,1021.75 1461.35,1021.75 1688.1,1021.75C1707.01,1021.75 1725.14,1014.24 1738.52,1000.87C1751.89,987.496 1759.4,969.36 1759.4,950.45C1759.4,893.227 1759.4,813.273 1759.4,756.05Z" style="fill:rgb(166,196,198);"/>
    <path d="M964.624,248.169C984.838,248.169 1003.76,258.117 1015.21,274.77C1050.44,325.549 1128.35,392.13 1128.35,392.13L1128.35,392.131C1128.35,392.131 1234.33,484.45 1294.69,600.669C1316.14,641.964 1325.78,689.593 1331.17,728.476C1332.75,739.845 1326.53,750.864 1315.98,755.388C1302.54,761.158 1286.32,768.113 1286.32,768.113C1281.68,770.103 1278.73,774.724 1278.87,779.771C1279.01,784.818 1282.21,789.269 1286.95,790.999C1286.95,790.999 1304.96,797.565 1319.58,802.896C1332.35,807.552 1339.21,821.41 1335.18,834.388C1328.16,856.661 1309.57,874.342 1285.42,879.294C1252.54,886.038 1219.84,867.036 1209.42,835.133C1207.92,829.847 1206.66,825.654 1205.66,822.689C1172.81,724.618 1152.91,681.747 1096.61,644.532C1096.61,644.532 1096.61,644.531 1096.61,644.531C1083.18,635.656 1079.46,617.599 1088.27,604.133C1099.5,586.977 1112.91,566.487 1112.91,566.487C1114,563.573 1113.22,560.288 1110.93,558.182C1108.64,556.076 1105.3,555.568 1102.49,556.9C1102.49,556.9 1066.66,581.478 1045.52,595.984C1036.19,602.385 1024.27,603.67 1013.79,599.405C990.645,590.23 963.142,581.968 929.256,575.337C834.82,556.857 776.257,528.909 722.163,486.557C707.37,475.013 704.661,453.696 716.096,438.819C734.374,414.964 758.655,383.376 758.655,383.376C761.886,378.392 761.712,371.932 758.216,367.13C754.72,362.328 748.626,360.178 742.891,361.722C742.891,361.722 696.216,382.449 665.724,395.99C650.26,402.858 632.099,397.385 623.005,383.117C592.628,334.629 570.75,273.43 563.64,211.887C561.577,193.345 573.577,176.146 591.691,171.682C629.567,162.258 689.433,147.505 689.433,147.505C693.373,146.233 696.049,142.573 696.068,138.433C696.087,134.294 693.445,130.61 689.517,129.301C689.517,129.301 636.713,113.472 601.045,102.779C582.691,97.278 571.502,78.753 575.174,59.947C584.521,12.231 593.963,-22.974 593.963,-22.974C593.963,-22.974 925.754,-74.922 1075.61,-98.384C1089.08,-100.494 1102.78,-95.85 1110.93,-86.413C1119.07,-76.976 1120.25,-64.388 1113.96,-53.961C1091.33,-16.455 1059.89,35.649 1028.01,88.491C1015.07,109.932 1005.74,130.461 999.855,150.159C994.444,168.225 981.031,182.802 963.477,189.694C933.058,201.644 890.668,218.289 890.668,218.289C884.194,221.25 880.527,228.202 881.739,235.217C882.951,242.233 888.738,247.551 895.83,248.169L964.624,248.169Z" style="fill:rgb(225,86,86);"/>
</svg>
